<?xml version="1.0" encoding="utf-8"?>
<!-- Generator: Adobe Illustrator 21.0.2, SVG Export Plug-In . SVG Version: 6.00 Build 0)  -->
<svg version="1.1" id="Слой_1" xmlns="http://www.w3.org/2000/svg" xmlns:xlink="http://www.w3.org/1999/xlink" x="0px" y="0px"
	 viewBox="0 0 380 333" style="enable-background:new 0 0 380 333;" xml:space="preserve">
<style type="text/css">
	.st0{fill:#FFFFFF;stroke:#000000;stroke-linecap:round;stroke-linejoin:round;stroke-miterlimit:10;}
	.st1{fill:url(#SVGID_1_);}
	.st2{fill:url(#SVGID_2_);}
	.st3{fill:none;stroke:#000000;stroke-linecap:round;stroke-linejoin:round;stroke-miterlimit:10;}
	.st4{fill:none;stroke:#FFFFFF;stroke-linecap:round;stroke-linejoin:round;stroke-miterlimit:10;}
	.st5{fill:url(#SVGID_3_);}
</style>
<g id="Objects_14_">
	<path class="st0" d="M250.8,75.2c6.5-17.7-2.2-31.6-17.2-37.3c-15-5.7-31.7,1.7-37.6,16.5L250.8,75.2z"/>
	<linearGradient id="SVGID_1_" gradientUnits="userSpaceOnUse" x1="86.3976" y1="94.6179" x2="86.3976" y2="191.1373">
		<stop  offset="5.405406e-03" style="stop-color:#FFD629"/>
		<stop  offset="0.3893" style="stop-color:#FFD62B"/>
		<stop  offset="0.5276" style="stop-color:#FFD832"/>
		<stop  offset="0.6262" style="stop-color:#FFDA3D"/>
		<stop  offset="0.7059" style="stop-color:#FFDD4E"/>
		<stop  offset="0.7742" style="stop-color:#FFE164"/>
		<stop  offset="0.8347" style="stop-color:#FFE780"/>
		<stop  offset="0.8894" style="stop-color:#FFEDA0"/>
		<stop  offset="0.9397" style="stop-color:#FFF4C6"/>
		<stop  offset="0.9844" style="stop-color:#FFFCEF"/>
		<stop  offset="1" style="stop-color:#FFFFFF"/>
	</linearGradient>
	<polygon class="st1" points="143.8,161.7 62,199.7 29,128.6 107.5,92.2 	"/>
</g>
<g id="Scale_1_">
	<rect x="177.2" y="179.9" class="st0" width="125.7" height="71.6"/>
	<rect x="266.9" y="185.1" class="st0" width="24.5" height="53.7"/>
	<rect x="236.9" y="185.1" class="st0" width="24.5" height="53.7"/>
	<rect x="207.7" y="185.1" class="st0" width="24.5" height="53.7"/>
</g>
<g id="Newspaper">
	<linearGradient id="SVGID_2_" gradientUnits="userSpaceOnUse" x1="236.9012" y1="126.2554" x2="277.9012" y2="214.7554">
		<stop  offset="5.405406e-03" style="stop-color:#FFD629"/>
		<stop  offset="0.3893" style="stop-color:#FFD62B"/>
		<stop  offset="0.5276" style="stop-color:#FFD832"/>
		<stop  offset="0.6262" style="stop-color:#FFDA3D"/>
		<stop  offset="0.7059" style="stop-color:#FFDD4E"/>
		<stop  offset="0.7742" style="stop-color:#FFE164"/>
		<stop  offset="0.8347" style="stop-color:#FFE780"/>
		<stop  offset="0.8894" style="stop-color:#FFEDA0"/>
		<stop  offset="0.9397" style="stop-color:#FFF4C6"/>
		<stop  offset="0.9844" style="stop-color:#FFFCEF"/>
		<stop  offset="1" style="stop-color:#FFFFFF"/>
	</linearGradient>
	<polygon class="st2" points="326.1,180.3 220.6,229.2 158.6,95.6 259.7,48.7 268.5,56.2 	"/>
	<polygon class="st0" points="328,173.2 120.9,269.3 58.9,135.6 257.5,43.5 270.4,49.1 	"/>
	<polygon class="st0" points="224.5,221.2 162.5,87.6 56.8,142.3 119.3,276.8 	"/>
	<line class="st3" x1="202.5" y1="96.8" x2="247.4" y2="76"/>
	<line class="st3" x1="209.3" y1="111.5" x2="254.2" y2="90.6"/>
	<line class="st3" x1="216.1" y1="126.1" x2="261" y2="105.3"/>
	<path class="st3" d="M262.8,131.8c6.7-3.1,13.5-6.2,20.2-9.4"/>
	<path class="st3" d="M252.5,136.6c2-0.9,4-1.9,6-2.8"/>
	<line class="st3" x1="257.8" y1="147.9" x2="288.2" y2="133.8"/>
	<path class="st3" d="M263.1,159.2c6.4-3,12.8-6,19.3-8.9"/>
	<rect x="219.2" y="145.6" transform="matrix(0.9072 -0.4208 0.4208 0.9072 -47.9517 115.4099)" width="36.8" height="41.5"/>
	<rect x="176.6" y="76.8" transform="matrix(0.9072 -0.4208 0.4208 0.9072 -14.2647 93.442)" width="56" height="4.5"/>
	<polyline class="st4" points="228,179.9 231.8,169.1 239.3,170.1 245.1,153.8 	"/>
	
		<rect x="69.7" y="129.4" transform="matrix(0.9072 -0.4208 0.4208 0.9072 -59.9081 66.6144)" class="st0" width="102.7" height="79.4"/>
	<rect x="90.5" y="147.4" transform="matrix(0.9072 -0.4208 0.4208 0.9072 -57.2127 59.4091)" class="st3" width="31" height="24"/>
	<line class="st3" x1="118.7" y1="134.9" x2="93.3" y2="183.9"/>
	<line class="st3" x1="101.4" y1="186.3" x2="122" y2="176.7"/>
	<line class="st3" x1="104.7" y1="193.3" x2="125.2" y2="183.7"/>
	<line class="st3" x1="107.9" y1="200.3" x2="128.5" y2="190.7"/>
	<path class="st3" d="M205.3,102.8l51.2-23.8c4.8-2.2,10.4-0.1,12.6,4.6l0,0c2.2,4.8,0.1,10.4-4.6,12.6l-61,28.3
		c-4.8,2.2-10.4,0.1-12.6-4.6l0,0c-2.2-4.8-0.1-10.4,4.6-12.6"/>
	<line class="st3" x1="131.7" y1="224.6" x2="182.6" y2="200.9"/>
	<line class="st3" x1="135.1" y1="231.9" x2="186" y2="208.3"/>
	<path class="st3" d="M181.5,219.3c2.6-1.2,5.3-2.4,7.9-3.7"/>
	<path class="st3" d="M138.5,239.3c12.5-5.5,26.1-11.8,38.7-17.9"/>
	<polyline class="st3" points="257.5,43.5 262.2,53.6 270.7,49.7 	"/>
	<linearGradient id="SVGID_3_" gradientUnits="userSpaceOnUse" x1="206.2956" y1="105.2846" x2="206.2956" y2="125.9539">
		<stop  offset="5.405406e-03" style="stop-color:#FFD629"/>
		<stop  offset="0.3893" style="stop-color:#FFD62B"/>
		<stop  offset="0.5276" style="stop-color:#FFD832"/>
		<stop  offset="0.6262" style="stop-color:#FFDA3D"/>
		<stop  offset="0.7059" style="stop-color:#FFDD4E"/>
		<stop  offset="0.7742" style="stop-color:#FFE164"/>
		<stop  offset="0.8347" style="stop-color:#FFE780"/>
		<stop  offset="0.8894" style="stop-color:#FFEDA0"/>
		<stop  offset="0.9397" style="stop-color:#FFF4C6"/>
		<stop  offset="0.9844" style="stop-color:#FFFCEF"/>
		<stop  offset="1" style="stop-color:#FFFFFF"/>
	</linearGradient>
	<circle class="st5" cx="206.3" cy="112.9" r="1.3"/>
	<path class="st0" d="M181.2,115.6c1.8-2,4.8-5.1,5.6-3.7s-3.9,5.7-3.9,5.7"/>
</g>
<g id="Man_27_">
	<g id="Hand_2_11_">
		<path class="st0" d="M133.3,97.6c0,0.3-0.1,0.7-0.2,1c0,0,0,0.1-0.1,0.2c-0.2,0.8-0.7,1.5-1.3,2.1v0c-0.5,0.4-1,0.8-1.7,1.1
			c-0.1,0.1-0.2,0.1-0.3,0.1c-0.2,0.1-0.4,0.2-0.7,0.3c-1.6,0.6-3,1.4-4.3,2.4c-0.4,0.3-0.9,0.6-1.3,1c-0.2,0.1-0.4,0.3-0.5,0.5
			c-0.4,0.3-0.7,0.7-1,1c-0.7,0.8-1.4,1.5-1.9,2.4c-0.5,0.7-0.9,1.5-1.3,2.2c-0.2,0.3-0.3,0.7-0.5,1c-0.8,1.9-1.3,4-1.4,6.1
			c0,0.3,0,0.7,0,1c0,2,0.3,4.1,1,6.1c0.1,0.3,0.3,0.7,0.4,1c0.8,2,2.1,3.9,3.7,5.6c0.5,0.5,1,1,1.6,1.5c0,0,0,0,0,0
			c0.9,0.8,1.7,3.3,2.2,6.1c0.1,0.3,0.1,0.7,0.2,1c0.4,2.6,0.4,5.1,0.1,6.2c-0.2,0.6-0.6,0.5-1.1-0.1c-0.6-0.6-1.2-1.8-1.9-3.2
			c0.3,0.6,1.1,2.2,1.5,3.2c0.2,0.5,0.2,0.8,0,0.9c-0.4,0.2-1.1-0.3-1.7-0.9c-0.7-0.7-1.3-1.7-1.6-2.2c0.3,0.5,0.8,1.4,1.2,2.2
			c0.2,0.4,0.3,0.7,0.4,1c0.1,0.3,0.1,0.5,0,0.5c-0.3,0.1-0.8-0.1-1.4-0.5c-0.3-0.2-0.7-0.5-1-0.8c-1.5-1.3-3.1-3.1-4-3.8
			c-0.9-0.8-1.8-1.6-2.6-2.4c-0.3-0.3-0.5-0.6-0.8-0.9c-1.7-1.9-3.1-4-4.3-6.2c-0.2-0.3-0.3-0.6-0.5-0.9c0-0.1-0.1-0.1-0.1-0.2l0,0
			c-0.1-0.1-0.1-0.3-0.2-0.4c-0.8-1.8-1.5-3.6-1.9-5.5c-0.1-0.3-0.2-0.7-0.2-1c-0.4-2-0.6-4.1-0.7-6.1c0-0.3,0-0.7,0-1
			c0-2.1,0.3-4.1,0.8-6.1c0.1-0.3,0.2-0.7,0.2-1c0.4-1.7,1-3.4,1.8-5c0.3-0.7,0.7-1.4,1.1-2.1c1.2-2.2,2.8-4.3,4.6-6.2
			c0.3-0.3,0.6-0.6,0.9-0.9c0.2-0.2,0.4-0.4,0.6-0.5c0.3-0.3,0.6-0.5,0.8-0.7c1.8-1.5,3.9-2.9,6.2-4c0.3-0.1,0.6-0.3,0.8-0.4
			c0.4-0.2,0.8-0.4,1.3-0.5c0,0,0,0,0,0c0,0,0,0,0.1,0c0.2-0.1,0.3-0.1,0.5-0.2c0.1-0.1,0.3-0.1,0.4-0.2c0.2,0,0.3-0.1,0.4-0.1h0
			c0.1,0,0.3-0.1,0.4-0.1c0.5-0.1,0.9-0.2,1.4-0.1h0.1c1.1,0,2,0.4,2.9,0.9C132.3,92.8,133.5,95.3,133.3,97.6z"/>
		<line class="st0" x1="116.2" y1="143.5" x2="124.4" y2="135.5"/>
	</g>
	<g id="Legs_27_">
		<path class="st0" d="M124.5,195l-3.6,11.7H137c0,0,3.1-7.2-1.3-7.3l1.4-4.4H124.5z"/>
		<path d="M123.5,196.3h15.7c6.2-11.3,7.9-24.7,5.7-37.7c-1.5-8.9-4.9-17.4-9.1-25.4c-2.1-4-4.6-7.7-7.1-11.5c-1-1.5-5-6.4-3.4-8.3
			c6.3-7.3-6.4-19.3-10.6-10.6c-4.4,9.2-5.4,15.8-0.9,23.5c4.5,7.8,9.9,14.8,13.2,23.3c2.8,7.4,3.8,16.7,2.5,25.4
			C128.1,184.5,124.4,193.1,123.5,196.3z"/>
		<path class="st0" d="M135.6,195l-4,11.7h17.9c0,0,3.4-7.2-1.5-7.3l1.2-4L135.6,195z"/>
		<path d="M137.6,150.3c5.7,15.2,6,33.5-5.6,46h18.1c6-11.2,7.6-24.3,5.4-37.1c-1.5-8.9-4.9-17.4-9.1-25.4c-2.1-4-4.6-7.7-7.1-11.5
			c-1-1.5-5-6.4-3.4-8.3c6.3-7.3-4.3-17.9-10.6-10.6c-6.1,7.1-5.4,15.8-0.9,23.5C129,134.8,134.4,141.8,137.6,150.3z"/>
		<path class="st4" d="M115,116.5l3.2,1.2c0,0,17.5,22.4,20.5,41.2c1.5,9.7,1.5,25.5-3,35.3"/>
		<line class="st0" x1="148" y1="199.3" x2="145.8" y2="199.3"/>
	</g>
	<g id="Head_28_">
		<path class="st0" d="M142.5,84.8l-6.2,8.7c-1.6-0.9-3.2-1.9-4.8-2.7l6.4-8.9c-0.5-1.1-0.9-2.7-0.2-4.6c1.5-4.2,7.3-3,8.7-0.1
			c1.4,2.9,1.2,4.8,1.2,4.8l-1.2,0.3C146.4,82.2,145.5,85.3,142.5,84.8z"/>
		<path d="M141.9,74.2c1.7,0.2,3.3,1.1,4.5,2.8c-1.4,1.1-2.5,1.4-3.6,1.3c-1.1-0.1-1.3,1.4-0.5,1.9c0.4,0.3-1.1,1.5-2.4,1.9
			c-1,0.3-1.8-0.1-1.9-0.1c-0.6-1.2-1-2.7-0.3-4.7c0.1-0.3,0.7-1.4,0.8-1.8C139.7,74.7,140.6,74.3,141.9,74.2z"/>
		<path d="M143.4,77.6c0,0.5-0.1,1-0.3,1.4c-0.2,0.6,0.7,0.9,0.9,0.3c0.2-0.5,0.3-1.1,0.3-1.7C144.4,77.1,143.4,77,143.4,77.6z"/>
	</g>
	<g id="Body_28_">
		<polygon class="st0" points="140.7,91.3 140.6,91.5 139.1,94.3 138.9,94.6 129.6,91.2 130.4,90.5 132.3,87.8 136.2,89.4 
			137.1,89.8 138.9,90.5 		"/>
		<path class="st0" d="M143.8,101c-0.1,0.8-0.3,1.6-0.6,2.3c-0.2,0.5-0.4,0.9-0.6,1.4c-0.2,0.3-0.3,0.7-0.5,1c0,0,0,0.1-0.1,0.1
			c-1,2.1-1.9,4.3-2.5,6c-0.1,0.4-0.3,0.7-0.4,1c0,0.1,0,0.1-0.1,0.2c-0.5,1.5-0.8,2.4-0.8,2.4l-1.3-0.4l-1-0.3l-5.9-1.9l-3.2-1
			l-4.1-1.3l-1-0.3l-1.9-0.6l-4.2-1.3l-1-0.3l-2.5-0.8c0.2-0.5,0.5-1,0.7-1.4c0.2-0.3,0.3-0.7,0.5-1c0.5-0.9,0.9-1.7,1.3-2.5
			c0.3-0.6,0.7-1.2,1-1.8c0.4-0.6,0.7-1.2,1.1-1.8c0.2-0.3,0.4-0.7,0.7-1c1.5-2.2,2.9-3.8,4.3-4.9c0.3-0.2,0.6-0.5,0.9-0.7
			c0.4-0.3,0.8-0.5,1.2-0.7c0,0,0,0,0,0c0,0,0,0,0.1,0c0.2-0.1,0.3-0.1,0.5-0.2c0.1-0.1,0.3-0.1,0.4-0.1c0.2,0,0.3-0.1,0.4-0.1h0
			c0.1,0,0.3-0.1,0.4-0.1c0.5-0.1,0.9-0.1,1.4-0.1h0.1c1.6,0,3.1,0.3,4.8,0.9c0.3,0.1,2,0.7,2.5,0.9c0.5,0.2,1,0.4,1.5,0.5
			c0.4,0.1,0.7,0.3,1,0.4c0.7,0.3,1.4,0.6,2,1c1.9,1.1,3.2,2.2,3.9,3.3C143.7,98.7,143.9,99.8,143.8,101z"/>
	</g>
	<g id="Hand_16_">
		<path class="st0" d="M174.6,113.2c3-0.8,9.6-3.2,10.4-1.2c0.8,2-6.4,1.6-5.1,2.6c1.3,1,6.1-4.1,6.9-2.7s-3.9,5.7-3.9,5.7
			s3.8-3.8,4-2.3c0.3,1.6-4.5,5.1-4.5,5.1s3.9-3.7,4.5-2.2s-3.8,7-11.4,7"/>
		<path class="st0" d="M175.5,125.2c-1,0-2,0-3,0c-0.3,0-0.7,0-1,0c-2-0.1-4.1-0.3-6.1-0.6c-0.3,0-0.7-0.1-1-0.2
			c-2.1-0.4-4.1-0.8-6.1-1.4c-0.3-0.1-0.7-0.2-1-0.3c-2.1-0.7-4.1-1.4-6.1-2.3c-0.3-0.2-0.7-0.3-1-0.5c-0.7-0.3-1.3-0.7-2-1
			c-1.4-0.7-2.8-1.5-4.1-2.3c-0.3-0.2-0.7-0.4-1-0.6c-1.4-0.9-2.7-1.9-4-2.9c-0.1-0.1-0.2-0.1-0.3-0.2c-0.4-0.3-0.8-0.7-1.2-1
			c-0.2-0.2-0.4-0.4-0.7-0.6c-0.3-0.3-0.7-0.6-1-0.9c-1.1-1-2.2-2.1-3.2-3.2c-0.4-0.5-0.7-0.9-1-1.4c-0.2-0.3-0.3-0.7-0.4-1
			c-0.4-1.3-0.3-2.6,0.2-3.8v0c0.3-0.8,0.8-1.5,1.3-2.1c0-0.1,0.1-0.1,0.1-0.2c0.4-0.4,0.8-0.7,1.3-1c0.5-0.3,1.1-0.6,1.6-0.7
			c0.3-0.1,0.7-0.1,1-0.2c1-0.1,2.1,0.2,3.1,0.9c0.4,0.3,0.8,0.6,1.2,1c0.6,0.6,1.2,1.3,1.8,1.8c0.2,0.2,0.4,0.4,0.6,0.5
			c0.1,0.1,0.3,0.3,0.4,0.4c1.3,1.2,2.6,2.3,4,3.3c0.5,0.3,0.9,0.7,1.4,1c0.2,0.1,0.4,0.3,0.7,0.4c0.3,0.2,0.7,0.4,1,0.6
			c2,1.2,4,2.2,6.1,3.1c0.3,0.1,0.7,0.3,1,0.4c1.6,0.6,3.1,1.1,4.7,1.5c1.7,0.4,3.3,0.8,5.1,1c1.1,0.2,2.2,0.3,3.4,0.3
			c0.3,0,0.7,0,1,0c0.7,0,1.4,0,2,0c0.2,1.9,0.4,3.8,0.5,5.6c0,0.3,0.1,0.7,0.1,1C175.3,121.6,175.4,123.4,175.5,125.2z"/>
		<path d="M193.9,106.9l1.3,0c0.5,0,0.7,0.6,0.5,0.9l-0.8,1.2c-0.1,0.1-0.1,0.2-0.2,0.2l-19.2,8.8c-0.3,0.1-0.7,0-0.8-0.3l-0.6-1.2
			c-0.1-0.3,0-0.7,0.3-0.8l19.2-8.8C193.7,106.9,193.8,106.9,193.9,106.9z"/>
	</g>
</g>
<g id="Pencil">
	<line class="st4" x1="157.2" y1="266.8" x2="171.1" y2="272"/>
	<path class="st0" d="M166.7,284.5c7.8-20.5,15.7-40.9,23.5-61.4c1.8-4.7,0.3-21.8,0.3-21.8s-13.1,11.5-14.9,16.2
		c-7.8,20.5-15.7,40.9-23.5,61.4C148.5,288.3,163.1,293.9,166.7,284.5z"/>
	<path d="M190.8,220.8c-0.1,0.9-0.3,1.7-0.5,2.3c-6.8,17.6-13.5,35.3-20.3,52.9l-14.6-5.5c6.8-17.7,13.6-35.3,20.3-53
		c0.2-0.5,0.5-1.1,1-1.8L190.8,220.8z"/>
	<path d="M191.1,209.8c-0.2-4.6-0.5-8.4-0.5-8.4s-3,2.7-6.4,6C186.5,208.1,188.8,208.9,191.1,209.8z"/>
	<line class="st4" x1="181.5" y1="214.5" x2="161.6" y2="268.3"/>
	<line class="st4" x1="186.6" y1="216.7" x2="166.7" y2="270.4"/>
</g>
<g id="Noise_22_">
	<line class="st3" x1="193.5" y1="58" x2="195.8" y2="59.3"/>
	<line class="st3" x1="180.8" y1="72" x2="179" y2="74.6"/>
	<line class="st3" x1="66" y1="214.5" x2="70.4" y2="215.7"/>
	<line class="st3" x1="199.4" y1="204.9" x2="195.8" y2="206.6"/>
	<line class="st3" x1="195.8" y1="195" x2="195.8" y2="199.3"/>
	<line class="st3" x1="202.5" y1="219.3" x2="206.3" y2="220.1"/>
	<line class="st3" x1="209.3" y1="200.8" x2="209.3" y2="204.9"/>
	<line class="st3" x1="213.4" y1="174.8" x2="211.4" y2="179.3"/>
	<line class="st3" x1="312.4" y1="196.3" x2="317" y2="197.1"/>
	<line class="st3" x1="310" y1="201.4" x2="308.7" y2="204.9"/>
</g>
</svg>
