<?xml version="1.0" encoding="utf-8"?>
<!-- Generator: Adobe Illustrator 21.0.2, SVG Export Plug-In . SVG Version: 6.00 Build 0)  -->
<!--
  Copyright 2021 Quantap Inc.

  Licensed under the Apache License, Version 2.0 (the "License");
  you may not use this file except in compliance with the License.
  You may obtain a copy of the License at

      http://www.apache.org/licenses/LICENSE-2.0

  Unless required by applicable law or agreed to in writing, software
  distributed under the License is distributed on an "AS IS" BASIS,
  WITHOUT WARRANTIES OR CONDITIONS OF ANY KIND, either express or implied.
  See the License for the specific language governing permissions and
  limitations under the License.
-->
<svg version="1.1" id="Слой_1" xmlns="http://www.w3.org/2000/svg" xmlns:xlink="http://www.w3.org/1999/xlink" x="0px" y="0px"
	 viewBox="0 0 346 324" style="enable-background:new 0 0 346 324;" xml:space="preserve">
<style type="text/css">
	.st0{fill:url(#SVGID_1_);}
	.st1{fill:none;stroke:#000000;stroke-linecap:round;stroke-linejoin:round;stroke-miterlimit:10;}
	.st2{fill:url(#SVGID_2_);}
	.st3{fill:url(#SVGID_3_);}
	.st4{fill:url(#SVGID_4_);}
	.st5{stroke:#000000;stroke-linecap:round;stroke-linejoin:round;stroke-miterlimit:10;}
	.st6{fill:#FFFFFF;stroke:#000000;stroke-linecap:round;stroke-linejoin:round;stroke-miterlimit:10;}
	.st7{fill:none;stroke:#FFFFFF;stroke-linecap:round;stroke-linejoin:round;stroke-miterlimit:10;}
	.st8{fill:url(#SVGID_5_);}
</style>
<g id="Wiki">
	<linearGradient id="SVGID_1_" gradientUnits="userSpaceOnUse" x1="135.954" y1="30.4083" x2="135.954" y2="91.0896">
		<stop  offset="0" style="stop-color:#FF647E"/>
		<stop  offset="1" style="stop-color:#FFFFFF"/>
	</linearGradient>
	<rect x="108.8" y="43" class="st0" width="54.2" height="50"/>
	<g>
		<polygon points="130.4,84.5 126.3,84.5 115.5,53 119.6,53 		"/>
		<polygon points="130.4,84.5 126.3,84.5 133.7,66.3 137.8,66.3 		"/>
		<polygon points="141.4,84.5 145.6,84.5 156.4,53 152.2,53 		"/>
		<polygon points="141.4,84.5 145.6,84.5 138.1,66.3 134,66.3 		"/>
		<line class="st1" x1="113.4" y1="53" x2="121.6" y2="53"/>
		<line class="st1" x1="149.7" y1="53" x2="157.9" y2="53"/>
	</g>
</g>
<g id="Glasses">
	<line class="st1" x1="154" y1="114.5" x2="182.4" y2="114.5"/>
	<path class="st1" d="M91,171.8c-8-0.7-15.5-2.9-22-6.4c-12.1-6.4-21.3-16.9-26.2-29.6c-2.5-6.6-3.9-13.8-3.9-21.3
		c0-3.9,0.4-7.8,1.1-11.5c3.7-18.3,16.1-33.4,32.6-40.9c7.3-3.3,15.3-5.1,23.8-5.1c31.8,0,57.2,20.6,57.5,57.5
		c0.2,25.4-16.4,47-39.4,54.6"/>
	<path class="st1" d="M240,172c-33.3,0-57.5-25.8-57.5-57.5c0-31.8,25.8-57.5,57.5-57.5c31.8,0,57.2,20.6,57.5,57.5
		c0,5.4-0.7,10.6-2,15.5c-1.8,6.6-4.8,12.7-8.7,18.1c-1.2,1.7-2.6,3.4-4,4.9"/>
</g>
<g id="Text_2_">
	<linearGradient id="SVGID_2_" gradientUnits="userSpaceOnUse" x1="162.6041" y1="176.7417" x2="162.6041" y2="88.7189">
		<stop  offset="0" style="stop-color:#FF647E"/>
		<stop  offset="1" style="stop-color:#FFFFFF"/>
	</linearGradient>
	<polygon class="st2" points="122.3,159.4 122.3,153.4 202.9,153.4 202.9,159.4 	"/>
	<linearGradient id="SVGID_3_" gradientUnits="userSpaceOnUse" x1="171.9166" y1="176.7417" x2="171.9166" y2="88.7189">
		<stop  offset="0" style="stop-color:#FF647E"/>
		<stop  offset="1" style="stop-color:#FFFFFF"/>
	</linearGradient>
	<polygon class="st3" points="122.3,141.2 122.3,135.2 221.5,135.2 221.5,141.2 	"/>
	<linearGradient id="SVGID_4_" gradientUnits="userSpaceOnUse" x1="171.9166" y1="176.7417" x2="171.9166" y2="88.7189">
		<stop  offset="0" style="stop-color:#FF647E"/>
		<stop  offset="1" style="stop-color:#FFFFFF"/>
	</linearGradient>
	<polygon class="st4" points="122.3,123 122.3,117 221.5,117 221.5,123 	"/>
</g>
<g id="Notes_1_">
	<polygon class="st1" points="170,50.6 178.5,50.6 174.6,55.7 	"/>
	<line class="st1" x1="226.7" y1="52.4" x2="184.8" y2="52.4"/>
	<line class="st1" x1="210.7" y1="61.2" x2="183.7" y2="61.2"/>
</g>
<g id="Man_22_">
	<polyline class="st1" points="114.6,173.5 121,171 132,199.5 107.4,208.9 96.4,180.5 104.9,177.2 	"/>
	<path d="M70,141.1c-3.4,3.4-10.2,4-13.5,0c-9-10.9-15-24.1-16.5-38.1c3.7-18.3,16.1-33.4,32.6-40.9c-16.5,18-19.1,45.7-2.6,65.5
		C73.3,131.5,73.9,137.1,70,141.1z"/>
	<path class="st5" d="M76.8,154.1c-3.1,5.2-5.7,8.8-7.8,11.2c-12.1-6.4-21.3-16.9-26.2-29.6c17.4-22,19.9-22.4,26.9-13.4
		c0.1,0.1,0.1,0.1,0.2,0.2c2.4,3,4.9,5.7,6.9,8.5C81,137.1,83.1,143.5,76.8,154.1z"/>
	<path class="st1" d="M106.1,162.7c-8.7-0.2-28.1-1.6-28.4-14.4c-0.3-11.7-18.5-11.7-18.2,0c0.3,10.3,6.1,19,14.7,24.5
		c9.4,6,21.1,6.5,31.9,6.8C117.8,179.8,117.8,162.9,106.1,162.7z"/>
	<path d="M95.7,166.8c0.9-2,1.5-3,3.2-4.7c-9.4-0.6-20.9-3.8-21.2-13.9c-0.3-11.7-18.5-11.7-18.2,0c0.3,10.3,6.1,19,14.7,24.5
		c6.1,3.9,13.2,5.5,20.4,6.2C94.1,174.9,94,170.7,95.7,166.8z"/>
	<path class="st1" d="M112.4,170.6c1.6,4-0.8,8.9-3.6,9.5"/>
	<polygon points="107.7,184.8 106.9,187.8 105.2,185.2 102.6,166.9 105.1,166.5 	"/>
	<path class="st6" d="M98.6,168.3c1.3,9.3,4.5,15,7,12.8c1.3-1.2-2-6.3-2.1-7.6"/>
	<path class="st6" d="M110,172.4c2.7,9.5-1.2,12.6-2.5,11.2c-0.6-0.6-0.2-3.1-0.4-5.3c-0.2-2.5-0.9-4.8-0.9-4.8"/>
	<line class="st1" x1="106.9" y1="187.8" x2="119.6" y2="187.8"/>
	<line class="st1" x1="108.9" y1="191" x2="121.7" y2="191"/>
	<path class="st7" d="M77.7,151.9c-0.6,0.9-10.9,10.6-10.9,10.6"/>
	<path class="st6" d="M92.1,113.4c-1.2-4.6-8.7-7.9-12.2-2.2c-1.6,2.6-2,4.8-1.5,6.6l-7.8,5.8c-0.3-0.3-0.5-0.6-0.8-1
		c-0.4,3.7-0.9,13.4-0.9,13.4l7.8-4.9c-0.3-0.5-0.7-0.9-1-1.4l8.5-6.3c4.2,1.6,6.5-2.6,6.5-2.6l1.9-0.1
		C92.5,120.8,93.3,118,92.1,113.4z"/>
	<path d="M94.1,111.3c-1.1,2.7-8,3.2-10.1,2.6c-1.6-0.5-2.3,1.6-1.3,2.6c0.8,0.9-2.5,1.8-3.3,1.7c-0.3-0.1-0.6-0.1-0.9-0.3
		c-0.5-1.9-0.1-4.1,1.5-6.8c1.6-2.7,5.5-3.5,8.9-3.7C92.3,107.2,95.1,107.6,94.1,111.3z"/>
</g>
<g id="Woman_11_">
	<linearGradient id="SVGID_5_" gradientUnits="userSpaceOnUse" x1="314.9036" y1="167.3296" x2="260.1719" y2="167.3296">
		<stop  offset="0" style="stop-color:#FF647E"/>
		<stop  offset="1" style="stop-color:#FFFFFF"/>
	</linearGradient>
	<path class="st8" d="M281.8,154.2c-0.6,1.5-1.6,2.6-3.2,2.9c-0.9,2-2.5,3-4.2,2.6c-0.3,0.3-0.6,0.5-0.8,0.8
		c-0.3,0.3-0.6,0.4-0.9,0.4c-0.8,0.6-1.6,1.3-2.4,1.9c-0.7,0.5-1.5,1-2.3,1.4l34.7,16.3l6.4-13.6L281.8,154.2z"/>
	<polyline class="st1" points="274.2,144.7 304,151.9 295.7,186.3 265.9,179.1 270.2,161.5 	"/>
	<path d="M226.3,139.2c2,12.3,8.2,22.9,8.2,22.9l25.8-13.4l6-2l-1.8-5.4c2.1-3.5-0.6-8.4-4.6-13.7L226.3,139.2z"/>
	<path class="st6" d="M258.5,149.4c-8.4,4.9-19.4,8.5-28.6,4.2c-3.5-1.6-3.7-3.6-1.9-6.8c2.7-4.7,9.1-6.4,13.9-7.7
		c12.4-3.3,7.1-22.6-5.3-19.3c-10.2,2.7-21,7.6-26.2,17.4c-5.2,9.7-4.6,22.3,4.1,29.9c16.4,14.3,45,6.8,59.7-6.7"/>
	<path d="M249.8,173.6c-12.2,3-25.5,2.1-35.2-6.4c-8.7-7.6-9.2-20.1-4.1-29.9c4.2-7.8,11.9-12.5,20.1-15.5c2-0.7,4.1-1.4,6.1-1.9
		c0.6-0.2,1.3-0.3,1.9-0.3c3.6-0.3,6.5,1.3,8.3,3.7c3.5,4.6,3.2,12.3-2.9,15.2c-0.6,0.3-1.2,0.5-1.9,0.7c-4.9,1.3-11.2,3-13.9,7.7
		c-1.8,3.1-1.6,5.2,1.9,6.8c4.9,2.2,10.2,2.2,15.5,1C245.4,161.1,247.3,167.2,249.8,173.6z"/>
	<path d="M295.5,130c-1.8,6.6-4.8,12.7-8.7,18.1c-11.9-8.4-27-17.3-40.8-10.4c-0.7,0.3-1.4,0.6-2.1,0.8c-4.4,1.2-9.1-0.2-11.6-4.4
		c-1.9-3.2-1.8-8,0.2-11c0.8-1.2,1.9-2.1,3.3-2.6c0.9-0.3,1.8-0.6,2.6-0.8c5.6-1.7,10.8-2.6,15.8-2.8h0
		C269.5,116.1,282.5,121.5,295.5,130z"/>
	<path class="st6" d="M271.7,146c7-1.5,13.7,0.2,13.3,5.9"/>
	<polygon class="st6" points="287.9,156.5 288.5,159.8 285.4,158.3 272.5,140.6 275,138.9 	"/>
	<path class="st6" d="M258.5,149.4c0,0,10.3-6.6,20-1.4c9.7,5.2,8.9,9,3.3,6.6c-3.2-1.4-5.1-2.4-5.1-2.4"/>
	<path class="st6" d="M281.8,154.6c0.2,0.8-1.8,4.2-4.5,2.7"/>
	<path class="st6" d="M245.2,117.9l-3.8-9.7c1.4-1.3,2.2-3.3,2.4-6.3c0.3-6.7-7.8-8.1-11.3-5c-3.5,3.2-4.4,5.9-4.4,5.9l1.5,1.1
		c0,0-0.5,4.7,3.9,5.8l4,10.1c-0.2,0-0.5,0.1-0.7,0.2c-2,0.5-4.1,1.2-6.1,1.9c0.7,0.5,1.3,0.9,2,1.2c5.3,2.9,10.2,2.4,14.3,0.3
		c3-1.6,5.6-4,7.5-6.5C251.4,116.9,248.4,117.3,245.2,117.9z"/>
	<path class="st6" d="M278.5,158c0,0-1.1,3.5-5.1,1.6"/>
	<path d="M268.9,88.7c-5.5,4.1-7.9-0.9-13.3,3.8c-4.1,3.5-13-1.2-14.8,1.1c-0.5,0.7-1.4,0.9-2.1,0.3c-0.1,0-0.1-0.1-0.2-0.1
		c-2.7-2.1-5.3-3.4-6.5,0.3c-0.6,2.9,4.8,7.1,7,7.8c1.6,0.5,1,2.6-0.4,2.9c-0.3,0.1-0.4,0.3-0.3,0.7c-0.8,7.5,7,11.3,17,12.2
		c10,0.9,8.2-8.2,7.9-13.3c-0.3-5.1,9.4-5.8,13.3-11.5C280.4,87.1,274.4,84.6,268.9,88.7z"/>
	<line class="st1" x1="288.5" y1="160.5" x2="296.2" y2="162.3"/>
	<line class="st1" x1="276" y1="163.7" x2="294.9" y2="167.8"/>
	<line class="st1" x1="271.9" y1="178.7" x2="270.8" y2="182.8"/>
	<line class="st1" x1="274.7" y1="179.1" x2="273.5" y2="183.2"/>
	<line class="st1" x1="289.6" y1="183" x2="288.5" y2="187.1"/>
	<line class="st1" x1="287.1" y1="182.1" x2="286" y2="186.2"/>
</g>
<g id="Objects_10_">
	
		<rect x="71.3" y="192.6" transform="matrix(0.9051 0.4253 -0.4253 0.9051 97.997 -12.2551)" class="st1" width="10.3" height="41.5"/>
	<line class="st1" x1="131.6" y1="212.7" x2="80.1" y2="250.9"/>
	<line class="st1" x1="136" y1="219.6" x2="84.4" y2="257.8"/>
	<line class="st1" x1="101.6" y1="205" x2="99.2" y2="209"/>
	<line class="st1" x1="178.2" y1="160.8" x2="180.9" y2="162.6"/>
	<line class="st1" x1="186.7" y1="143.8" x2="185.2" y2="147.2"/>
	<line class="st1" x1="158.8" y1="168.1" x2="155.8" y2="172"/>
	<line class="st1" x1="200.9" y1="164.1" x2="203.3" y2="161.1"/>
	<line class="st1" x1="203.9" y1="105.4" x2="206.1" y2="109.3"/>
	<line class="st1" x1="154" y1="81.5" x2="157" y2="84.5"/>
</g>
<g id="Hand_13_">
	<path d="M191.9,269.2L191.9,269.2c-2.6-0.1-4.6-2.2-4.5-4.8l3.1-98.9l4.1-7.9c0.7-1.3,2.6-1.1,3,0.3l2.3,7.9l-3.1,98.9
		C196.6,267.3,194.5,269.3,191.9,269.2z"/>
	<path class="st6" d="M218.5,288c-15.7-46-45.1-58.1-41.5-83.3c3.6-25.1,7.7-45.8,16.4-34.8c4.9,6.2,3.9,34.8,3.9,34.8"/>
	<path d="M198.2,209l1.6-43.2l-2.6-8.7c-0.4-1.4-2.3-1.6-3-0.3l-3.8,8.7l-0.8,25.7C191.5,196.9,194.3,204.4,198.2,209z"/>
	<path class="st1" d="M189.9,190.9c0,0,2.2,14.7,13.4,22.6c8.2,5.7,23.2,4.2,30.4,14.3"/>
	<path class="st1" d="M206.5,177.3c10.6-1.2,12.3,8.6,7.5,23.6c-3.4,10.8-14.5,8.9-14.8-1.4c-0.2-7.2,17.1-31.5-2.6-32.7"/>
	<path class="st1" d="M216.7,184.4c14.5,3.4,13.5,8.9,9.8,25.4c-2.7,11.8-14.9,5.5-13.9-5.7"/>
	<path class="st1" d="M228.5,197.8c14.2,15.1,40.5,57.2,44.1,79"/>
	<path class="st1" d="M197,181.4c3.9,4.5,8.1,0.3,8.1,0.3"/>
	<path class="st1" d="M182,179.6c3.6-0.7,4.3-7.9,4.3-7.9"/>
	<path class="st1" d="M203.9,194.7c-0.9,5.5,0.6,7.3,4.2,7.9"/>
	<path class="st1" d="M217.6,204.1c-0.3,5.8,4.5,7,4.5,7"/>
	<path class="st1" d="M198.6,177.8c2.7,2.8,5,0.9,5.7-1.7"/>
	<line class="st1" x1="261.8" y1="195.9" x2="263.9" y2="199.3"/>
</g>
</svg>
