<?xml version="1.0" encoding="utf-8"?>
<!-- Generator: Adobe Illustrator 21.0.2, SVG Export Plug-In . SVG Version: 6.00 Build 0)  -->
<!--
  Copyright 2021 Quantap Inc.

  Licensed under the Apache License, Version 2.0 (the "License");
  you may not use this file except in compliance with the License.
  You may obtain a copy of the License at

      http://www.apache.org/licenses/LICENSE-2.0

  Unless required by applicable law or agreed to in writing, software
  distributed under the License is distributed on an "AS IS" BASIS,
  WITHOUT WARRANTIES OR CONDITIONS OF ANY KIND, either express or implied.
  See the License for the specific language governing permissions and
  limitations under the License.
-->
<svg version="1.1" id="Слой_1" xmlns="http://www.w3.org/2000/svg" xmlns:xlink="http://www.w3.org/1999/xlink" x="0px" y="0px"
	 viewBox="0 0 346 299.1" style="enable-background:new 0 0 346 299.1;" xml:space="preserve">
<style type="text/css">
	.st0{fill:url(#SVGID_1_);}
	.st1{fill:none;stroke:#000000;stroke-linecap:round;stroke-linejoin:round;stroke-miterlimit:10;}
	.st2{fill:#FFFFFF;stroke:#000000;stroke-linecap:round;stroke-linejoin:round;stroke-miterlimit:10;}
	.st3{fill:#FFFFFF;}
	.st4{stroke:#000000;stroke-linecap:round;stroke-linejoin:round;stroke-miterlimit:10;}
	.st5{fill:none;stroke:#FFFFFF;stroke-linecap:round;stroke-linejoin:round;stroke-miterlimit:10;}
</style>
<g id="Screen">
	<linearGradient id="SVGID_1_" gradientUnits="userSpaceOnUse" x1="40.7549" y1="122.3873" x2="209.4216" y2="122.3873">
		<stop  offset="0" style="stop-color:#7700E3"/>
		<stop  offset="0.2557" style="stop-color:#A14EEC"/>
		<stop  offset="0.5234" style="stop-color:#C999F4"/>
		<stop  offset="0.7457" style="stop-color:#E6D0FA"/>
		<stop  offset="0.9106" style="stop-color:#F8F2FE"/>
		<stop  offset="1" style="stop-color:#FFFFFF"/>
	</linearGradient>
	<rect x="40.8" y="62.9" class="st0" width="168.7" height="119"/>
	<rect x="62.1" y="54.9" class="st1" width="168.7" height="119"/>
	<polygon class="st1" points="135.1,92.9 135.1,137.6 173.4,111.6 	"/>
	<line class="st1" x1="80.4" y1="154.2" x2="207.1" y2="154.2"/>
	<rect x="105.1" y="149.2" width="4" height="10"/>
</g>
<g id="Page_1_">
	<rect x="76.1" y="180.6" transform="matrix(0.8945 0.447 -0.447 0.8945 101.8911 -25.077)" class="st1" width="56" height="45.7"/>
	<line class="st1" x1="97.3" y1="187.9" x2="123.2" y2="200.8"/>
	<path class="st1" d="M116.4,207.7c0.9,0.4,1.8,0.9,2.7,1.3"/>
	<path class="st1" d="M93.2,196.1c5.4,2.7,10.8,5.4,16.2,8.1"/>
	<line class="st1" x1="89.1" y1="204.3" x2="115" y2="217.2"/>
</g>
<g id="Hand_11_">
	<path class="st2" d="M130.6,79c13.5-1,22.5,2.5,25.8,7.3s2.5,11-1.8,11.8"/>
	<path class="st3" d="M158.6,100.4c-0.5-1.9-1.3-4-2.2-6c0.1-0.1,0.1-0.2,0.2-0.3c-2.2-3.7-4.5-7.2-7.3-10.5
		c-4.5-2.8-9.2-5.3-13.8-7.9c-11.6-5.3-23.8-13-28.1-25.1c-1.2-2.1-2.2-4.4-3.1-6.7H54.1c1.8,21,12.1,37.9,32.8,49.9
		c15,8.8,34.9,13.7,28.3,15.3s-2.1,9.5,8.3,6.5c3.3-1,5.6-2.2,7-3.6c0,0,0,0,0,0l-0.7,0.7c9.7,1.3,17.1-1.3,15.1-13.3
		c0.1-0.3,0.1-0.6,0.1-0.9c1,1.9,3.3,6.3,6.3,9.1c2.8,2.7,5.4,5.6,8.2,4.6C161.5,111.7,159.6,104.1,158.6,100.4z"/>
	<path class="st1" d="M105.5,47.8c7,16.1,23.3,25.7,34.2,30.1c10.7,4.3,16.6,14.3,18.8,22.5c1,3.8,2.9,11.3,0.8,12
		c-2.8,1-5.8-1.2-8.2-4.6c-3.1-4.4-6.8-10.1-6.8-10.1"/>
	<path class="st2" d="M145.3,95.6c9.9,12.5-4.7,18.7-15,17.3"/>
	<path class="st1" d="M54.6,48.3c2.8,19,13.1,34.3,32.3,45.5c15,8.8,34.9,13.7,28.3,15.3c-6.7,1.7-2.1,9.5,8.3,6.5
		s14.5-7.8,9.9-14.5"/>
	<line class="st2" x1="141.6" y1="88.9" x2="143.3" y2="90.9"/>
	<line class="st2" x1="128.1" y1="95.6" x2="130.6" y2="97.7"/>
	<line class="st2" x1="134.1" y1="92.2" x2="136.6" y2="94.4"/>
	<path class="st2" d="M115.2,107c1.9,1.1,3.9,2.4,3.9,2.4"/>
</g>
<g id="Notes_1">
	<path class="st4" d="M207,36.6c23.1,0.3,47.1,0.3,70.6,0"/>
	<path class="st4" d="M190.3,36.6c3.3,0,6.7,0,10,0"/>
	<path class="st4" d="M265.2,46.2c4.1,0,8.3,0,12.4,0"/>
	<path class="st4" d="M190.3,46.2c22.8-0.3,44.8-0.3,67.7,0"/>
	<path class="st4" d="M251.2,55.9c8.8,0,17.6,0,26.4,0"/>
	<path class="st4" d="M237.4,55.9c2.2,0,4.5,0,6.7,0"/>
	<line class="st4" x1="237.4" y1="65.6" x2="277.6" y2="65.6"/>
	<circle class="st4" cx="182.8" cy="36.6" r="2.3"/>
	<circle class="st4" cx="182.8" cy="45.9" r="2.3"/>
</g>
<g id="Notes_2">
	<path class="st4" d="M169.2,251.1H114c18.1,0.3,36.7,0.3,55.2,0.2C169.2,251.2,169.2,251.1,169.2,251.1z"/>
	<path class="st4" d="M97.3,251.1c3.3,0,6.7,0,10,0"/>
	<path class="st4" d="M97.3,260.7c22.8-0.3,44.8-0.3,67.7,0"/>
	<circle class="st4" cx="90.1" cy="251.1" r="2.3"/>
</g>
<g id="Noise_17_">
	<line class="st5" x1="86.1" y1="131.9" x2="89.6" y2="135.9"/>
	<line class="st5" x1="50.1" y1="96.4" x2="47.6" y2="102.4"/>
	<line class="st4" x1="177.6" y1="225.4" x2="173.1" y2="227.5"/>
	<line class="st4" x1="60.1" y1="221.4" x2="65.1" y2="225.4"/>
	<line class="st4" x1="290.1" y1="67.4" x2="286.1" y2="70.4"/>
	<line class="st4" x1="79.6" y1="242.9" x2="80.1" y2="248.4"/>
	<circle class="st1" cx="165.1" cy="216.4" r="4.5"/>
	<line class="st4" x1="164.6" y1="98.4" x2="177.1" y2="78.9"/>
	<line class="st4" x1="163.6" y1="127.4" x2="171.6" y2="134.4"/>
	<line class="st4" x1="172.1" y1="103.6" x2="182.4" y2="95.6"/>
	<line class="st5" x1="102.8" y1="112.2" x2="101.4" y2="115.9"/>
	<line class="st5" x1="185.4" y1="163.6" x2="182.4" y2="166.6"/>
</g>
<g id="Woman_9_">
	<path class="st4" d="M204.6,252c0,0-6.5,8.3-8.4,10.9l18,12.7c0,0,6.3-5.7,3.2-10l1.9-3.5"/>
	<path class="st4" d="M266.2,259.8c0,0,0.5,10.1,0.7,13.6h24c0,0,1.2-9.3-5.5-10.3l-1.7-6.8"/>
	<path class="st2" d="M283.8,256.2c-4.7,0.9-9.3,1.9-14,2.8c-1.2,0.2-2.4,0.5-3.5,0.7c-1-6-2-12.2-3.3-18.6
		c-1.6-8.2-3.4-16.7-5.5-25.2c-2.1-8.5-4.4-16.9-7-25.2c-1.7-5.3-3.4-10.6-5.3-15.7c-1.2-3.2-2.5-6.4-3.8-9.5
		c-2.2-5.4-4.6-10.5-7.2-15.4c0.1,4.8,0.2,10,0.3,15.4c0.1,8,0.2,16.6,0,25.2c-0.2,8.4-0.6,16.9-1.6,25.2c-1,8.8-2.5,17.3-4.7,25.2
		c-2,6.9-4.5,13.3-7.8,19c-0.4,0.6-0.7,1.3-1.1,1.9c-4.9-3.3-9.8-6.7-14.7-10.1c2.1-3.3,3.8-6.9,5.3-10.8c2.9-7.6,4.7-16.2,5.8-25.2
		c1-8.1,1.4-16.6,1.5-25.2c0.1-8.5-0.1-17-0.4-25.2c-0.3-8.9-0.6-17.5-0.6-25.2c0-2.6,0-5.1,0.1-7.5c0.3-9.4,12.1-11.2,16.4-5.4
		c3.8-1.9,8.7-1.4,11.5,3.4c0.3,0.6,0.7,1.2,1,1.8c1.4,2.5,2.8,5.1,4.1,7.8c4,8,7.7,16.4,11.1,25.2c3.1,8.2,6,16.6,8.6,25.2
		c0.3,0.9,0.6,1.9,0.8,2.8c2.2,7.4,4.2,14.9,6,22.4c2.1,8.5,3.9,17,5.4,25.2C282.1,246.3,283,251.3,283.8,256.2z"/>
	<path class="st2" d="M274.8,81.7c-4.7-3.5-5-7.7-0.2-9.3"/>
	<line class="st4" x1="277.3" y1="65.6" x2="270.6" y2="84.7"/>
	<path class="st2" d="M225.8,89.6c-0.3-6-7.7-6.5-10.5-3.4c-2.8,3.1-3.4,5.7-3.4,5.7l1.4,0.9c0,0,0,4.3,4,4.8l5.5,11.5l10.2,3.6
		l-8.7-17.2C225.3,94.2,225.9,92.3,225.8,89.6z"/>
	<path class="st4" d="M218.6,100.1l2.9,6.2l10.2,3.6l-6-11.9C223.3,98.7,221,99.4,218.6,100.1z"/>
	<path d="M215.8,85.7c-0.3,2.6-0.1,4.9,1.8,5.3c1.5,0.3,1.1,2.2-0.1,2.6c-1.8,0.7,4.3,2.7,6.5,1.9c1.2-1.3,1.8-3.2,1.7-6
		C225.5,83.9,218.9,83.1,215.8,85.7z"/>
	<path d="M229.8,106.2c-12.5,2.1-16.1,3.5-15.4,17.7c0.2,4.2,1.9,9.9,2.4,16.7l29.3-6c0,0-1-9.3-2-16.7
		C243.1,110.6,241.8,104.2,229.8,106.2z"/>
	<path class="st2" d="M274.6,83.9c-0.8-5.3-1.2-15.3,1.3-15.3s0.5,4.5,1.2,6c0,0,2.5-1.3,3.7,0.2c0,0,3.1-1.5,4.3,0.8
		c1.4,2.5,2.7,8.8,2.7,8.7"/>
	<path class="st4" d="M287.9,83.3c-4.8,0.2-8.5,0.5-13.3,0.6c2.3,10.4,2.3,25.1-12,23.2c-7.2-0.9-13.9-3.4-21.2-4
		c-7-0.6-14,0.4-20.4,3.3c-26.8,12.3-26,45.6-22.8,70.2c0,0,0,0,0,0.1c4.4-1.5,8.9-2.8,13.5-3.8c-1.7-12.8-3.2-26.6,1.8-38.7
		c5.3-12.7,16-18.6,29.6-16.9c13.3,1.7,27.5,8.7,38.6-2.7C290.1,105.9,290.1,94.3,287.9,83.3z"/>
	<path class="st2" d="M198.2,176.7c0,5.7,0,15.2,1.5,15.7s1.3-5.8,2.2-5.7c0.8,0.2,0.7,6.7,2.3,6.5s1.5-6.8,1.5-6.8s0.8,6.8,2.2,7
		c1.3,0.2,1.8-11.8,2.8-11.8s1.5,5.2,3.3,4.8c1.8-0.3-1-7.7-2.3-13.4"/>
	<path class="st2" d="M206.3,179.5c3,2.6,4.4,2,4.4,2"/>
	<line class="st5" x1="218.8" y1="265.4" x2="217.3" y2="267.9"/>
	<line class="st5" x1="283.3" y1="260.1" x2="286.1" y2="259.2"/>
	<path d="M224.1,87.4c5.8-2.3,8.2-7.5,13.7-1.5s7.2,1.8,11.5,1.5c4.3-0.3,8.7,4.5,6.7,8.5c-2,4-8.3-1.8-11.8,0.8
		c-3.5,2.7-11.5,3.7-12.7-1.3c-1.2-5-3.3-7.3-7.3-5C220.1,92.7,224.1,87.4,224.1,87.4z"/>
	<line class="st5" x1="242.6" y1="112.6" x2="243.2" y2="117.3"/>
	<g>
		<polyline class="st1" points="220.4,260.2 220.4,241.2 220.4,216 220.4,190.8 220.4,165.6 220.4,140.4 220.4,125.9 		"/>
		<polyline class="st1" points="245.1,132.6 245.1,140.4 245.1,165.6 245.1,175.1 		"/>
		<polyline class="st1" points="269.8,193.6 269.8,216 269.8,241.2 269.8,259.1 269.8,266.4 		"/>
		<line class="st1" x1="268.9" y1="190.8" x2="250.4" y2="190.8"/>
		<polyline class="st1" points="234.5,190.8 220.4,190.8 217.2,190.8 		"/>
		<polyline class="st1" points="275.8,216 269.8,216 257.4,216 		"/>
		<polyline class="st1" points="232.9,216 220.4,216 215.7,216 		"/>
		<polyline class="st1" points="216.2,140.4 220.4,140.4 245.1,140.4 249.2,140.4 		"/>
		<polyline class="st1" points="260.3,165.6 245.1,165.6 241.3,165.6 		"/>
		<polyline class="st1" points="234.5,165.6 220.4,165.6 216.8,165.6 		"/>
		<polyline class="st1" points="281.2,241.2 269.8,241.2 262.9,241.2 		"/>
		<polyline class="st1" points="228.2,241.2 220.4,241.2 209.9,241.2 		"/>
	</g>
	<line class="st1" x1="234.2" y1="150.2" x2="227.3" y2="151.1"/>
	<line class="st5" x1="215.1" y1="121.9" x2="215.4" y2="128.2"/>
</g>
</svg>
