<?xml version="1.0" encoding="utf-8"?>
<!-- Generator: Adobe Illustrator 21.0.2, SVG Export Plug-In . SVG Version: 6.00 Build 0)  -->
<!--
  Copyright 2021 Quantap Inc.

  Licensed under the Apache License, Version 2.0 (the "License");
  you may not use this file except in compliance with the License.
  You may obtain a copy of the License at

      http://www.apache.org/licenses/LICENSE-2.0

  Unless required by applicable law or agreed to in writing, software
  distributed under the License is distributed on an "AS IS" BASIS,
  WITHOUT WARRANTIES OR CONDITIONS OF ANY KIND, either express or implied.
  See the License for the specific language governing permissions and
  limitations under the License.
-->
<svg version="1.1" id="Слой_1" xmlns="http://www.w3.org/2000/svg" xmlns:xlink="http://www.w3.org/1999/xlink" x="0px" y="0px"
	 viewBox="0 0 326 352" style="enable-background:new 0 0 326 352;" xml:space="preserve">
<style type="text/css">
	.st0{fill:url(#BG_1_);}
	.st1{fill:#FFFFFF;stroke:#000000;stroke-linecap:round;stroke-linejoin:round;stroke-miterlimit:10;}
	.st2{fill:none;stroke:#000000;stroke-linecap:round;stroke-linejoin:round;stroke-miterlimit:10;}
	.st3{fill:none;stroke:#FFFFFF;stroke-linecap:round;stroke-linejoin:round;stroke-miterlimit:10;}
	.st4{fill:#FFFFFF;}
	.st5{stroke:#000000;stroke-linecap:round;stroke-linejoin:round;stroke-miterlimit:10;}
</style>
<linearGradient id="BG_1_" gradientUnits="userSpaceOnUse" x1="161.411" y1="110.0946" x2="161.411" y2="353.2491">
	<stop  offset="0" style="stop-color:#FF647E"/>
	<stop  offset="0.152" style="stop-color:#FF6882"/>
	<stop  offset="0.3137" style="stop-color:#FF758C"/>
	<stop  offset="0.4799" style="stop-color:#FF8A9E"/>
	<stop  offset="0.6491" style="stop-color:#FFA8B7"/>
	<stop  offset="0.8209" style="stop-color:#FFCED7"/>
	<stop  offset="0.9923" style="stop-color:#FFFDFD"/>
	<stop  offset="1" style="stop-color:#FFFFFF"/>
</linearGradient>
<path id="BG_9_" class="st0" d="M270.1,208c0,60.1-48.7,108.7-108.7,108.7S52.7,268.1,52.7,208S101.4,99.3,161.4,99.3
	S270.1,136.7,270.1,208z"/>
<g id="Plant_2">
	<line class="st1" x1="130" y1="42.1" x2="130" y2="273.4"/>
	<line class="st1" x1="137" y1="60.4" x2="130.3" y2="60.4"/>
	<g>
		<rect x="137" y="60.4" class="st2" width="28.4" height="33.2"/>
		<line class="st2" x1="143.6" y1="67.5" x2="155.4" y2="67.5"/>
		<path class="st2" d="M143.6,72.3c2.7,0,5.4,0,8.1,0"/>
		<rect x="143.6" y="80.3" width="3.9" height="8"/>
		<rect x="149.3" y="78.4" width="3.9" height="9.8"/>
		<rect x="155" y="81" width="3.9" height="7.3"/>
	</g>
	<path class="st1" d="M131.7,36.5c3.2,8.3-1.5,17.8-1.5,17.8s-9.7-4-12.9-12.4c-3.2-8.3,1.5-17.8,1.5-17.8S128.5,28.2,131.7,36.5z"
		/>
	<path class="st1" d="M161,114.7c-11.8,10.8-30.6,9.3-30.6,9.3s0.2-18.9,12-29.6s30.6-9.3,30.6-9.3S172.8,104,161,114.7z"/>
	<line class="st1" x1="130.2" y1="54.3" x2="124.5" y2="39.2"/>
	<line class="st1" x1="130.5" y1="124.1" x2="156.1" y2="99.4"/>
</g>
<g id="Plant_1">
	<path class="st1" d="M124.8,212c-12.7,15.2-36,16.6-36,16.6s-2.8-23.2,9.8-38.4s36-16.6,36-16.6S137.5,196.8,124.8,212z"/>
	<rect x="95.3" y="133.4" class="st1" width="43.5" height="32.1"/>
	<line class="st1" x1="95.3" y1="133.4" x2="88.6" y2="133.4"/>
	<g>
		<polyline class="st2" points="104,158.4 109.6,150 115.5,151.7 127.6,139.7 		"/>
		<polyline class="st2" points="124.5,139.7 128.4,138.8 128.4,142.3 		"/>
		<rect x="104" y="138.8" class="st2" width="6.6" height="3.5"/>
	</g>
	<line class="st1" x1="88.6" y1="94.6" x2="88.6" y2="277.4"/>
	<path class="st1" d="M81,153.5c9,10.1,7.5,26.1,7.5,26.1s-16-0.5-24.9-10.6c-9-10.1-7.5-26.1-7.5-26.1S72,143.3,81,153.5z"/>
	<path class="st1" d="M102.6,86.4c-3.5,8.4-13.6,12.2-13.6,12.2s-4.4-9.9-0.9-18.3s13.6-12.2,13.6-12.2S106.1,78,102.6,86.4z"/>
	<path class="st1" d="M78.4,94.5c-3.3-4.6-2-11.2-2-11.2s6.6,0.9,9.9,5.5c3.3,4.6,2,11.2,2,11.2S81.7,99.1,78.4,94.5z"/>
	<line class="st1" x1="88.8" y1="228.5" x2="110.6" y2="200.3"/>
	<line class="st1" x1="74.3" y1="161.2" x2="88.5" y2="179.5"/>
	<line class="st1" x1="82.3" y1="91.7" x2="88.3" y2="100"/>
	<line class="st1" x1="97.1" y1="80.3" x2="88.9" y2="98.6"/>
</g>
<g id="Noise_23_">
	<line class="st1" x1="138.8" y1="55.7" x2="141.6" y2="52.4"/>
	<line class="st1" x1="153.1" y1="54" x2="158.5" y2="52.4"/>
	<line class="st1" x1="155.9" y1="35.7" x2="157" y2="39.2"/>
	<line class="st1" x1="207.3" y1="127.8" x2="208.3" y2="131.2"/>
	<line class="st1" x1="221.2" y1="119.4" x2="219.4" y2="124.1"/>
	<line class="st1" x1="220.3" y1="98.6" x2="216.7" y2="100"/>
	<line class="st1" x1="236.6" y1="186.9" x2="240" y2="190.1"/>
	<line class="st1" x1="240" y1="200.2" x2="238.3" y2="203.4"/>
	<line class="st1" x1="254.6" y1="167.8" x2="252.4" y2="170.7"/>
	<line class="st1" x1="99.7" y1="177.5" x2="98.1" y2="181.6"/>
	<line class="st1" x1="107.3" y1="177.5" x2="110.6" y2="176.1"/>
	<line class="st1" x1="97.5" y1="99.9" x2="94.7" y2="103.5"/>
	<line class="st1" x1="111.7" y1="103.4" x2="115.5" y2="102.3"/>
	<line class="st1" x1="114.1" y1="275.5" x2="115.8" y2="280.3"/>
	<line class="st1" x1="108.9" y1="277.9" x2="110.6" y2="280.3"/>
	<line class="st1" x1="158.5" y1="273.5" x2="155.9" y2="280.3"/>
</g>
<g id="Woman_16_">
	<g id="Legs_28_">
		<path class="st1" d="M120.9,280.3l20.7-0.7c0,0-0.6-9.9-0.5-14.7c0.1-4.8-14.4-2-14.4-2l-0.2,10.3
			C126.4,273.2,120.7,275.3,120.9,280.3z"/>
		<line class="st1" x1="126.6" y1="272.4" x2="130.8" y2="272.4"/>
		<path class="st1" d="M229.9,278.5l11.8-17c0,0-8.2-5.4-12.1-8.4c-3.8-2.9-10.2,10.4-10.2,10.4l8.1,6.3
			C227.5,269.8,225.8,275.6,229.9,278.5z"/>
		<line class="st1" x1="227" y1="269.2" x2="229.5" y2="265.8"/>
		<path d="M175.3,171.9c-3-3-9.1-3.5-12,0c-22,26.2-35.4,61-37.6,95.1c5.2,1.4,16.8,2.8,16.8,2.5c1.5-30.3,13.2-62.4,32.8-85.6
			C178.3,180.4,178.8,175.4,175.3,171.9z"/>
		<path d="M220.8,267.1c3.9-4.1,7.9-8.9,11.7-13.1c-25.8-24-40.7-54.4-41.7-89.7c-0.3-10.9-17.3-11-17,0
			C175,204,191.6,240.1,220.8,267.1z"/>
		<line class="st3" x1="175.6" y1="182.8" x2="171.9" y2="181.6"/>
	</g>
	<g id="Body_29_">
		<path class="st4" d="M211,186.7c-3.6,0.4-7.3,0.9-10.9,1.4c0,0.1,0,0.2-0.1,0.3c-0.2,1.6,0.2,3.1,0.9,4.5c0.4,0.7,1,1,1.6,1
			c2.4-0.9,4.9-1.2,7.4-1.2C210.8,190.8,211.1,188.8,211,186.7z"/>
		<path class="st5" d="M158.6,154c-1.6,6.2-5.9,11.3-11.9,13.7c-6.9,2.8-14.3-0.1-21.3,1.6c1.3,4,2.6,8,3.9,12
			c5,0.2,8.9,0.5,13.3,0.1c4.5-0.4,8.9-1.8,12.8-4c7.6-4.3,11.8-12.1,14-20.5C171.4,149,160.6,146.1,158.6,154z"/>
		<path class="st1" d="M191,168.1l-27.6,3.8c-8.9-21.3-4-23.3,1.9-25.4c1-0.4,2-0.7,3-1.2c1.1-0.5,2.1-0.9,3-1.2
			c8.8-2.6,12,4.9,13.3,8.9C185.9,157.4,191,168.1,191,168.1z"/>
		<path class="st5" d="M212.8,187.8c-3.2-18.8-15.1-35.1-32.5-43.1c-7.6-3.5-12.1,7.8-4.5,11.3c13.4,6.1,21.9,18.7,24.2,33.4
			C204.3,189,208.5,188.3,212.8,187.8z"/>
		<path class="st1" d="M125.3,169.3c-2.8,0.3-8.5,2.7-9.4,5.1c-1,2.4,1.6,0.5,3,0c0,0-4.1,1.6-3.2,3.3s2.9-0.7,4.1-0.8
			c0,0-3.5,1.7-2.5,3c1,1.3,3.5-1.9,5-0.8s-1.8,3.1-0.7,3.7s2.4-1.2,7.8-1.4"/>
		<path class="st1" d="M200,189.5c-0.5,4.1,0.8,6.8,3.2,7.6"/>
		<path class="st1" d="M201.5,192.5c0.9,2.1,3.4,7.6,5.5,7.7s-0.6-4.7-0.6-4.7s2.1,4.7,4.3,4.5c1.1-0.1-1.2-5.2-1.2-5.2
			s1.8,4.7,3.2,4.5c1.5-0.2-0.6-4.5-0.2-6c0.3-1,0.9-2.9,0.4-5.4"/>
	</g>
	<g id="Head_29_">
		<path d="M155.7,134.9c-3.6,5.6-2.6,1.4-10.8,3.9c-8.3,2.5-5.9,5-8.5,7s-5.3,5.1,5.9,4s14.3-3,15.9-4.6s6-3.4,7.1-7.7
			C166.4,133.1,155.7,134.9,155.7,134.9z"/>
		<path class="st1" d="M170.6,144.3l-2.7-3.4l-2.7-3.4c0.6-1.1,0.7-2.6,0.2-4.7c-1.2-4.4-6.9-3.6-8.5-0.8c-1.6,2.8-1.6,4.9-1.6,4.9
			l1.2,0.4c0,0,0.7,3.2,3.8,2.9l3.2,4l1.7,2.2c-0.1,0-0.1,0-0.2,0.1l0.6,7.4l5.1-9.2l0.3-0.6C171,144.1,170.8,144.2,170.6,144.3z"/>
		<path d="M161.8,129.4c-1.8,0.1-3.5,0.8-4.8,2.5c1.3,1.3,4.1,2,5.3,2c1.1,0,1.2,1.5,0.4,2c-0.7,0.4,1.4,1.7,1.9,1.7
			c0.2,0,0.4,0,0.6,0c0.7-1.1,0.8-2.7,0.3-4.8c-0.1-0.4-0.2-0.8-0.3-1.3C164.1,130.7,162.9,130,161.8,129.4z"/>
	</g>
</g>
<g id="Plant_3">
	<path class="st1" d="M182.3,258.7c-15.9-15.4-15.4-41.7-15.4-41.7s26.2-1.2,42.1,14.3s15.4,41.7,15.4,41.7S198.2,274.1,182.3,258.7
		z"/>
	<line class="st1" x1="214.2" y1="208" x2="224.4" y2="208"/>
	<g>
		
			<rect x="183.5" y="208" transform="matrix(-1 -1.224647e-16 1.224647e-16 -1 397.7538 454.1387)" class="st1" width="30.7" height="38.1"/>
		<path class="st2" d="M209.4,226.2c0,5.8-4.7,10.6-10.6,10.6c-5.8,0-10.6-4.7-10.6-10.6s4.7-10.6,10.6-10.6
			C204.7,215.6,209.4,219.5,209.4,226.2z"/>
		<polyline class="st2" points="206.4,218.4 198.9,226.2 209.4,226.2 		"/>
		<line class="st2" x1="189.9" y1="220.7" x2="198.9" y2="226.2"/>
		<line class="st2" x1="204.2" y1="238.7" x2="208.7" y2="238.7"/>
		<line class="st2" x1="204.2" y1="240.6" x2="208.7" y2="240.6"/>
	</g>
	<line class="st1" x1="224.4" y1="280.3" x2="224.4" y2="150"/>
	<path class="st1" d="M255.3,240.6c-11.9,10.9-30.8,9.4-30.8,9.4s0.2-19,12.1-29.9s30.8-9.4,30.8-9.4S267.1,229.7,255.3,240.6z"/>
	<path class="st1" d="M239.4,150c-4.4,8.3-15.1,11.2-15.1,11.2s-3.6-10.5,0.8-18.8c4.4-8.3,15.1-11.2,15.1-11.2
		S243.7,141.7,239.4,150z"/>
	<line class="st1" x1="224.4" y1="250" x2="252" y2="224.7"/>
	<line class="st1" x1="204.2" y1="251.5" x2="224.4" y2="273"/>
	<line class="st1" x1="231.1" y1="145" x2="224.3" y2="161.2"/>
	<line class="st1" x1="221.2" y1="208" x2="221.2" y2="211.6"/>
</g>
</svg>
