<?xml version="1.0" encoding="UTF-8" standalone="no"?>
<!-- Created with Inkscape (http://www.inkscape.org/) -->

<svg
   xmlns:dc="http://purl.org/dc/elements/1.1/"
   xmlns:cc="http://creativecommons.org/ns#"
   xmlns:rdf="http://www.w3.org/1999/02/22-rdf-syntax-ns#"
   xmlns:svg="http://www.w3.org/2000/svg"
   xmlns="http://www.w3.org/2000/svg"
   xmlns:sodipodi="http://sodipodi.sourceforge.net/DTD/sodipodi-0.dtd"
   xmlns:inkscape="http://www.inkscape.org/namespaces/inkscape"
   version="1.1"
   id="svg2"
   xml:space="preserve"
   width="353.33334"
   height="349.33334"
   viewBox="0 0 353.33334 349.33334"
   sodipodi:docname="quantap.svg"
   inkscape:version="0.92.4 (5da689c313, 2019-01-14)"><metadata
     id="metadata8"><rdf:RDF><cc:Work
         rdf:about=""><dc:format>image/svg+xml</dc:format><dc:type
           rdf:resource="http://purl.org/dc/dcmitype/StillImage" /><dc:title></dc:title></cc:Work></rdf:RDF></metadata><defs
     id="defs6" /><sodipodi:namedview
     pagecolor="#ffffff"
     bordercolor="#666666"
     borderopacity="1"
     objecttolerance="10"
     gridtolerance="10"
     guidetolerance="10"
     inkscape:pageopacity="0"
     inkscape:pageshadow="2"
     inkscape:window-width="2440"
     inkscape:window-height="1338"
     id="namedview4"
     showgrid="false"
     inkscape:zoom="0.6755725"
     inkscape:cx="181.10735"
     inkscape:cy="174.66667"
     inkscape:window-x="120"
     inkscape:window-y="50"
     inkscape:window-maximized="1"
     inkscape:current-layer="g10" /><g
     id="g10"
     inkscape:groupmode="layer"
     inkscape:label="ink_ext_XXXXXX"
     transform="matrix(1.3333333,0,0,-1.3333333,0,349.33333)"><g
       id="g12"
       transform="scale(0.1)"><path
         d="m 1063.59,2612.21 h 527.3 c 54.21,0 98.56,-44.35 98.56,-98.56 v -0.01 c 0,-54.21 -44.35,-98.56 -98.56,-98.56 h -527.3 c -54.21,0 -98.563,44.35 -98.563,98.56 v 0.01 c 0,54.21 44.353,98.56 98.563,98.56 z m 1162,-2212.675 -1196.5,-0.008 c -30.695,31.348 -59.82,64.25 -87.227,98.571 h -414.41 c -54.211,0 -98.562,-44.352 -98.562,-98.571 0,-54.211 44.351,-98.558 98.562,-98.558 h 609.587 989.98 c 54.23,0 98.57,44.347 98.57,98.566 z m 254.66,298.676 H 810.246 C 793.168,730.293 777.391,763.172 763,796.785 H 272.793 c -54.211,0 -98.563,-44.351 -98.563,-98.574 0,-54.207 44.352,-98.555 98.563,-98.555 H 868.465 2381.7 c 54.21,0 98.55,44.348 98.55,98.555 z m 97.93,298.687 H 696.078 c -7.953,32.392 -14.683,65.272 -20.144,98.572 H 174.867 c -54.211,0 -98.5623,-44.35 -98.5623,-98.572 0,-54.21 44.3513,-98.558 98.5623,-98.558 H 724.48 2479.62 c 54.21,0 98.56,44.348 98.56,98.558 z m -1097.8,223.442 h 1066.71 c 54.21,0 98.56,44.34 98.56,98.56 l -1162.47,-0.01 H 998.418 733.242 645.598 c -0.289,33.17 -1.821,66.04 -4.563,98.57 H 107.398 c -54.2066,0 -98.55816,-44.35 -98.55816,-98.57 0,-54.21 44.35156,-98.55 98.55816,-98.55 h 535.391 87.645 265.175 z m -14.34,298.68 h 1013.58 c 54.21,0 98.56,44.35 98.56,98.57 L 1445.9,1617.58 H 961.129 695.953 c -8.195,33.38 -17.676,66.26 -28.402,98.57 H 579.906 174.867 c -54.211,0 -98.5623,-44.35 -98.5623,-98.57 0,-54.21 44.3513,-98.56 98.5623,-98.56 H 628.453 716.098 981.27 Z M 435.922,2014.84 H 272.793 c -54.211,0 -98.563,-44.36 -98.563,-98.57 0,-54.22 44.352,-98.57 98.563,-98.57 h 268.594 87.644 265.172 484.767 1002.73 c 54.21,0 98.55,44.35 98.55,98.58 l -1148.53,-0.01 H 846.957 c -17.988,33.77 -37.422,66.65 -58.219,98.57 H 523.566 Z m 764.188,101.55 h 926.91 c 54.23,0 98.57,44.35 98.57,98.57 l -1112.69,-0.01 c -34.1,34.84 -70.15,67.75 -107.97,98.57 H 527.453 c -2.344,0 -4.664,-0.07 -6.976,-0.24 -50.989,-3.61 -91.586,-46.45 -91.586,-98.33 0,-54.21 44.351,-98.56 98.562,-98.56 H 715.34 Z M 1063.59,2.28125 h 527.3 c 54.21,0 98.56,44.35155 98.56,98.55875 v 0.012 c 0,54.207 -44.35,98.558 -98.56,98.558 h -527.3 c -54.21,0 -98.563,-44.351 -98.563,-98.558 v -0.012 c 0,-54.2072 44.353,-98.55875 98.563,-98.55875"
         style="fill:#ee5a4c;fill-opacity:1;fill-rule:evenodd;stroke:none"
         id="path14"
         inkscape:connector-curvature="0" /></g></g></svg>