<?xml version="1.0" encoding="utf-8"?>
<!-- Generator: Adobe Illustrator 21.0.2, SVG Export Plug-In . SVG Version: 6.00 Build 0)  -->
<!--
  Copyright 2021 Quantap Inc.

  Licensed under the Apache License, Version 2.0 (the "License");
  you may not use this file except in compliance with the License.
  You may obtain a copy of the License at

      http://www.apache.org/licenses/LICENSE-2.0

  Unless required by applicable law or agreed to in writing, software
  distributed under the License is distributed on an "AS IS" BASIS,
  WITHOUT WARRANTIES OR CONDITIONS OF ANY KIND, either express or implied.
  See the License for the specific language governing permissions and
  limitations under the License.
-->
<svg version="1.1" id="Слой_1" xmlns="http://www.w3.org/2000/svg" xmlns:xlink="http://www.w3.org/1999/xlink" x="0px" y="0px"
	 viewBox="0 0 322 343" style="enable-background:new 0 0 322 343;" xml:space="preserve">
<style type="text/css">
	.st0{fill:none;stroke:#000000;stroke-linecap:round;stroke-linejoin:round;stroke-miterlimit:10;}
	.st1{fill:#FFFFFF;stroke:#000000;stroke-linecap:round;stroke-linejoin:round;stroke-miterlimit:10;}
	.st2{fill:url(#SVGID_1_);}
	.st3{fill:none;stroke:#FFFFFF;stroke-linecap:round;stroke-linejoin:round;stroke-miterlimit:10;}
	.st4{fill:url(#SVGID_2_);}
</style>
<g id="Notepad_1_">
	<rect x="40.9" y="141.8" transform="matrix(0.8798 -0.4754 0.4754 0.8798 -60.5351 48.6772)" width="50.1" height="4.5"/>
	<rect x="35.8" y="132.3" transform="matrix(0.8798 -0.4754 0.4754 0.8798 -56.659 45.1158)" width="50.1" height="4.5"/>
	<line class="st0" x1="200.6" y1="205" x2="232.1" y2="188"/>
	<line class="st0" x1="203.6" y1="210.5" x2="235" y2="193.5"/>
	<path class="st0" d="M215.9,211c7.4-4,14.8-8,22.2-12"/>
	<path class="st0" d="M206.5,216c1.9-1,3.8-2.1,5.8-3.1"/>
	
		<rect x="71.2" y="59.8" transform="matrix(0.8798 -0.4754 0.4754 0.8798 -58.036 88.6759)" class="st0" width="150.3" height="198.6"/>
	<path class="st1" d="M134.5,61.7L71.3,95.9c-3.4,1.8-7.6,0.6-9.5-2.8L61.2,92c-1.8-3.4-0.6-7.6,2.8-9.5l63.2-34.2
		c3.4-1.8,7.6-0.6,9.5,2.8l0.6,1.1C139.2,55.6,137.9,59.9,134.5,61.7z"/>
	<line class="st0" x1="80.3" y1="74.2" x2="77.4" y2="92.2"/>
	<linearGradient id="SVGID_1_" gradientUnits="userSpaceOnUse" x1="252.0312" y1="180.1275" x2="137.2021" y2="-3.8528">
		<stop  offset="0" style="stop-color:#FF1010"/>
		<stop  offset="1" style="stop-color:#FFFFFF"/>
	</linearGradient>
	<polygon class="st2" points="190.5,48.9 193.9,55.1 163.8,71.4 160.4,65.2 	"/>
</g>
<g id="Cardiogram">
	<rect x="105.8" y="82.8" transform="matrix(0.8798 -0.4754 0.4754 0.8798 -46.1749 95.7499)" width="120.8" height="112.7"/>
	<polyline class="st3" points="200.7,100.5 207.5,130 175.1,91.3 178.6,117.9 173.7,113.8 172.7,120.7 162.2,113.2 172.3,139.6 
		151.1,124.3 163.8,154.5 147.3,129.7 148.9,141.5 133.3,144.3 	"/>
	<line class="st3" x1="164" y1="106.5" x2="160.6" y2="105.3"/>
	<line class="st3" x1="192.3" y1="78" x2="192.3" y2="88.1"/>
	<line class="st3" x1="193" y1="155.2" x2="207.4" y2="147.4"/>
	<line class="st3" x1="195.8" y1="160.4" x2="210.3" y2="152.6"/>
</g>
<g id="Man_3_">
	<path class="st1" d="M172,131.9c-6.4-8.2-13.5-16-22.6-21.2c-11-6.3-24.6-8.4-36.5-3.7l-0.9-7.1c2.3-2,0.6-4.7,0.6-4.7l0.6-1.1
		c0,0-1.4-1.4-4.6-2.2c-3.1-0.8-7.6,2.6-5.3,6.6c1,1.8,2.2,2.7,3.4,3.1l1.1,8.1c-10,6.3-14.8,18.1-16.7,29.5
		c-1.8,11.4-0.9,22.9,2.4,33.8c1.6,5.6,4,11.6,5.6,11.6c2-0.1,0.3-3.9,0-5c0.3,1,1.7,4.6,3.7,4.6c1.4,0,0.2-3.9-0.3-5.6
		c0.6,1.3,2.4,4.7,3.7,4.6c2.3-0.2-1.5-5.3,0.1-6.8c1.6-1.5,1.8,2.7,3.7,1.8c1.8-1-3.4-6.1-4.1-8.4c-2.8-8.8-3.5-18.2-2.3-27.4
		c0.5-3.8,1.4-7.8,2.9-11.5l5.2,9.5c0.1,0.5,24.9,56.7,39.2,89c0,0-4,9.9-0.9,8.2c0.5,0.9,1.2,0.7,1.8,0.5c0.4,0.7,1.8,1.1,2.7,0.6
		c0.7,1.5,2.2,0.7,3.1-0.4l7.9-10.6c0.9-1.2,1-2.7,0.4-4.1c-0.3-0.5-0.6-1.2-0.9-1.8c-10.7-23.8-25.2-54.7-35.3-77.3
		c14.3,19,32.8,45.5,48,66.2c0.9,1.4,1.9,2.7,2.8,4c0.3,0.6,0.7,1.2,1.1,1.7c0.8,1.2,2.2,1.9,3.7,1.7l13.1-1.3c1.4-0.1,2.8-1,2-2.4
		c0.9-0.5,1.2-2,0.8-2.6c0.5-0.4,1-0.9,0.5-1.8c3-1.8-7.1-3.6-7.1-3.6c-1.7-2.1-5.4-6.9-5.4-6.9c0,0,0,0,0,0
		c-21.6-28.6-56.1-74.1-56.6-74.4l-4.5-8.3c14.5,0.2,26.8,13.1,35.9,24.8c1.8,2.2,3.3,9.5,5.1,8.5c1.8-1-1.6-3.6,0.5-4
		c2.1-0.5,3.9,5.2,5.7,3.7c0.9-0.8-0.2-3-1.8-5.6c1.6,1.4,3.8,4.5,4.5,3.3c1.1-1.7-1.1-4.8-1.8-5.6c0.7,0.9,3.1,4.5,4.2,2.9
		C180.8,143.4,175.5,136.6,172,131.9z"/>
	
		<linearGradient id="SVGID_2_" gradientUnits="userSpaceOnUse" x1="293.4292" y1="616.366" x2="178.6001" y2="432.3857" gradientTransform="matrix(0.8798 -0.4754 0.4754 0.8798 -360.1475 -214.7144)">
		<stop  offset="0" style="stop-color:#FF1010"/>
		<stop  offset="1" style="stop-color:#FFFFFF"/>
	</linearGradient>
	<path class="st4" d="M179.9,144.8c-1,1.4-2.8-1.1-3.8-2.4c0.9,1.2,2.3,3.6,1.4,5.1c-0.7,1.1-2.9-1.9-4.5-3.3
		c1.7,2.6,2.8,4.9,1.9,5.6c-1.9,1.5-3.6-4.2-5.7-3.7c-2.1,0.5,1.3,3-0.5,4c-1.8,1-3.3-6.3-5.1-8.5c-9.1-11.7-21.4-24.6-35.9-24.8
		l4.5,8.3c0.5,0.3,30.5,39.9,52.1,68.4l-13.9,7.5c-13.6-18.8-26.9-37.3-39-53.4c8.1,18.3,17.3,38.9,26.9,59.9l-13.8,7.5
		c-14.3-32.2-32.8-74.2-32.9-74.7l-5.2-9.5c-1.5,3.7-2.4,7.7-2.9,11.5c-0.3,2.2-0.5,4.3-0.5,6.5L93,130.6
		c2.6-8.5,7.2-16.3,14.7-21.1l-0.4-2.6l5.1-2.8l0.4,2.8c11.9-4.7,25.6-2.6,36.5,3.7c9.1,5.2,16.2,13,22.6,21.2
		C175.5,136.6,180.8,143.4,179.9,144.8z"/>
	<path d="M107.9,91.8c1.2,1.6-0.8,4.1-1.8,5.2c-0.8,0.8,0.2,1.9,1.1,1.7c0.8-0.2,0.2,2.1-0.1,2.5c-0.1,0.2-0.3,0.3-0.4,0.4
		c-1.3-0.3-2.5-1.3-3.6-3.1C101,94.7,104.9,91.4,107.9,91.8z"/>
	<path class="st0" d="M105.7,110.3c4,9.3,7.5,11.5,11,9.1c2.6-1.8,0.8-7-1.8-13.8"/>
	<path class="st0" d="M102.5,112.8c3.4,6.8,11.4,22.1,6.3,25.8"/>
	<path class="st0" d="M117.3,104.1c3.9,7.8,12.4,22.5,18.2,21.4"/>
	<line class="st0" x1="118.3" y1="162.3" x2="150.5" y2="145"/>
	<line class="st0" x1="115" y1="156.6" x2="145.4" y2="140.8"/>
	<line class="st0" x1="111.9" y1="150.9" x2="145.7" y2="132.6"/>
	<line class="st0" x1="108.7" y1="145.1" x2="142.6" y2="126.8"/>
	<line class="st0" x1="105.6" y1="139.3" x2="139.5" y2="121"/>
	<line class="st0" x1="109.7" y1="129.7" x2="127.3" y2="120.2"/>
	<path class="st0" d="M117.8,118.4c1.9-1,3.8-2.1,5.7-3.1"/>
	<path class="st0" d="M108,123.7c2-1.1,4-2.2,6-3.2"/>
	<path class="st0" d="M117.4,110.6c0.9-0.5,1.7-0.9,2.6-1.4"/>
	<path class="st0" d="M104.7,117.5c1.2-0.6,2.3-1.3,3.5-1.9"/>
	<line class="st1" x1="154.2" y1="238.7" x2="154.5" y2="237.1"/>
	<line class="st1" x1="151.5" y1="238.1" x2="151.7" y2="237.1"/>
	<line class="st1" x1="149.7" y1="237.6" x2="149.8" y2="236.6"/>
	<line class="st1" x1="154.2" y1="238.7" x2="154.5" y2="237.1"/>
	<line class="st1" x1="151.5" y1="238.1" x2="151.7" y2="237.1"/>
	<line class="st1" x1="149.7" y1="237.6" x2="149.8" y2="236.6"/>
	<line class="st1" x1="199.9" y1="214.4" x2="198.4" y2="213.9"/>
	<line class="st1" x1="200.8" y1="211.8" x2="199.8" y2="211.5"/>
	<line class="st1" x1="201.2" y1="210" x2="200.4" y2="209.7"/>
	<path class="st1" d="M172.9,143.8c1.2,1.3,1.9,2.4,3.4,4.8"/>
	<path class="st1" d="M176.1,142.4c1.3,1.3,2.3,3.1,2.3,3.1"/>
</g>
<g id="Noise_3_">
	<line class="st1" x1="69.8" y1="219.1" x2="65.5" y2="216.7"/>
	<line class="st1" x1="70.2" y1="226.4" x2="69.9" y2="230"/>
	<line class="st1" x1="221.5" y1="93.3" x2="220.9" y2="96.4"/>
	<line class="st1" x1="224.7" y1="99.9" x2="226.6" y2="101.8"/>
	<line class="st1" x1="152" y1="73" x2="151.7" y2="76.1"/>
	<line class="st1" x1="84.8" y1="142.7" x2="81" y2="142.1"/>
	<line class="st0" x1="176.1" y1="265.8" x2="176.8" y2="270.9"/>
	<line class="st0" x1="185.7" y1="255" x2="188.2" y2="256.9"/>
	<line class="st0" x1="235.8" y1="255.7" x2="235.1" y2="260.1"/>
</g>
<g id="Hand_2_1_">
	<path class="st0" d="M153.5,268.4c6.5,10.4,12.2,16,12.2,16"/>
	<path class="st0" d="M119,304.8c-20.6-24.1-51.7-87.5-43.8-119.2"/>
	<path class="st1" d="M91,231.1c2.9-22.8,7.6-41.4,14.8-33.3s-1.4,37.1,4.8,55.2c6.2,18.1,4.3,23.8,4.3,23.8"/>
</g>
<rect id="Frame" x="105.8" y="82.8" transform="matrix(0.8798 -0.4754 0.4754 0.8798 -46.1759 95.7489)" class="st0" width="120.8" height="112.7"/>
<g id="Hand_5_">
	<path class="st0" d="M245.6,218.3c7.6,10.5,11.4,16.6,11.4,16.6"/>
	<path class="st0" d="M297,215.4c-6.9-7.7-26.5-47.5-57.3-67.2"/>
	<path class="st1" d="M253.7,170.2c-22.8-13.8-37.6-23.3-38.5-12.4c-0.9,10.8,17.6,16.7,25.7,26.6s12.4,25.2,21.9,29.5"/>
</g>
</svg>
