<?xml version="1.0" encoding="utf-8"?>
<!-- Generator: Adobe Illustrator 21.0.2, SVG Export Plug-In . SVG Version: 6.00 Build 0)  -->
<svg version="1.1" id="Слой_1" xmlns="http://www.w3.org/2000/svg" xmlns:xlink="http://www.w3.org/1999/xlink" x="0px" y="0px"
	 viewBox="0 0 380 315" style="enable-background:new 0 0 380 315;" xml:space="preserve">
<style type="text/css">
	.st0{fill:none;stroke:#000000;stroke-linecap:round;stroke-linejoin:round;stroke-miterlimit:10;}
	.st1{stroke:#000000;stroke-linecap:round;stroke-linejoin:round;stroke-miterlimit:10;}
	.st2{fill:#FFFFFF;stroke:#000000;stroke-linecap:round;stroke-linejoin:round;stroke-miterlimit:10;}
	.st3{fill:url(#Star_1_);}
	.st4{fill:none;stroke:#FFFFFF;stroke-linecap:round;stroke-linejoin:round;stroke-miterlimit:10;}
	.st5{fill:#FFFFFF;}
</style>
<g id="Paper_5_">
	<polyline class="st0" points="141.5,186.2 157.2,161.8 169.8,168.2 203.1,125.3 	"/>
	<rect x="112.5" y="69.2" class="st0" width="140.7" height="193.7"/>
	<rect x="185" y="256" class="st1" width="79.5" height="11.5"/>
	<rect x="167.7" y="232" class="st2" width="47.7" height="11.5"/>
	<rect x="167.7" y="208.7" class="st1" width="53.7" height="11.5"/>
	<rect x="167.7" y="185.4" class="st1" width="53.7" height="11.5"/>
	<line class="st0" x1="214" y1="151" x2="223.5" y2="151"/>
	<line class="st0" x1="214" y1="156" x2="223.5" y2="156"/>
</g>
<linearGradient id="Star_1_" gradientUnits="userSpaceOnUse" x1="197.4903" y1="40.2396" x2="197.4903" y2="99.8327">
	<stop  offset="0" style="stop-color:#7700E3"/>
	<stop  offset="0.3058" style="stop-color:#7802E3"/>
	<stop  offset="0.4432" style="stop-color:#7C09E4"/>
	<stop  offset="0.5469" style="stop-color:#8316E5"/>
	<stop  offset="0.6338" style="stop-color:#8C28E7"/>
	<stop  offset="0.71" style="stop-color:#9940EA"/>
	<stop  offset="0.7789" style="stop-color:#A85DED"/>
	<stop  offset="0.8422" style="stop-color:#BB7FF1"/>
	<stop  offset="0.9012" style="stop-color:#D0A7F5"/>
	<stop  offset="0.9545" style="stop-color:#E8D3FA"/>
	<stop  offset="1" style="stop-color:#FFFFFF"/>
</linearGradient>
<polygon id="Star" class="st3" points="186.6,57 184.8,43 203.8,47.1 223.8,27 216.3,58.5 238.7,69.5 219.3,76.8 224.8,91.5 
	201.9,86.7 190.6,93.8 187.4,78.1 156.3,63 "/>
<g id="Man_23_">
	<g id="Hand_2_7_">
		<path class="st2" d="M135.6,133.1c1.1-0.9,2.3-1.7,3.6-2.5c2.2-1.7,4.4-3.5,6.7-5.1c-0.8-0.9-1.9-1.6-3.3-2
			c-24.3-7.1-47.9,5.8-56.6,29.2c4.4,1.7,7.7,3.3,12.3,3.8c5.3-13.8,20.7-23.2,34.9-22.3C134.7,133.4,134.2,134.1,135.6,133.1z"/>
		<line class="st2" x1="134.4" y1="122.4" x2="134.7" y2="130.6"/>
	</g>
	<g id="Head_24_">
		<path class="st2" d="M90.2,136.9c0.6,2,1.5,3.2,2.6,3.9l-2,13.8l5.5,0.4l2.1-14.5c2.6-1.3,1.5-5.1,1.7-4.5l0.8-1
			c0,0-1.1-1.7-3.9-3.3C94.2,130.2,88.9,132.5,90.2,136.9z"/>
		<path d="M91.6,132.1c1.5-0.9,3.4-1.1,5.4-0.4c-0.4,1.8-2.5,3.9-3.5,4.5c-1,0.6-0.2,1.9,0.7,1.9c0.8,0-0.3,2.1-0.7,2.4
			c-0.2,0.1-0.4,0.2-0.5,0.3c-1.2-0.6-2.1-1.8-2.8-3.9c-0.1-0.4-0.3-0.8-0.4-1.3C90.3,134.4,90.9,133.2,91.6,132.1z"/>
		<path d="M96,135.1c-0.4-0.4-0.8-0.8-1.2-1.2c-0.9-0.9-2.4,0.5-1.4,1.4c0.4,0.4,0.8,0.8,1.2,1.2C95.6,137.4,97,136,96,135.1z"/>
	</g>
	<g id="Lens">
		<path class="st2" d="M199.7,70.3c-11.9-11.4-30.7-11-42.1,0.8c-10.2,10.6-11,26.8-2.5,38.3c1,1.3,2.1,2.6,3.4,3.8
			c1.3,1.2,2.6,2.3,3.9,3.2c11.8,8,27.8,6.5,38.2-4C213.2,99.5,211.5,81.7,199.7,70.3z M197.3,109.3c-9.8,10-25.8,10.4-35.9,0.7
			c-10.1-9.7-10.4-25.8-0.7-35.9c9.7-10.1,25.8-10.4,35.9-0.7C206.7,83.2,208.2,98.3,197.3,109.3z"/>
		<path class="st0" d="M161.1,97.8c-2.2-6.6-0.6-14.1,4.3-19.2"/>
		<path class="st0" d="M165.9,105.4c-0.7-0.7-1.4-1.4-2-2.2"/>
		<path class="st2" d="M162.3,116.4L126,154.2l-7.3-7l36.3-37.7c1,1.3,2.1,2.6,3.4,3.8C159.6,114.4,161,115.5,162.3,116.4z"/>
		
			<rect x="146.2" y="117.4" transform="matrix(0.7208 0.6932 -0.6932 0.7208 125.8593 -71.1492)" class="st0" width="10.1" height="6.5"/>
	</g>
	<g id="Legs_23_">
		<path class="st2" d="M162.8,265.9l-20.7-0.1c0,0,0.3-9.9,0-14.7c-0.2-4.8,14.3-2.4,14.3-2.4l0.6,11.3
			C157.1,260,162.8,260.9,162.8,265.9z"/>
		<line class="st2" x1="157.3" y1="257.7" x2="152.7" y2="257.8"/>
		<line class="st2" x1="157.3" y1="259.3" x2="152.7" y2="259.4"/>
		<path class="st2" d="M31.1,268.5l-5.4-20c0,0,9.6-2.3,14.2-3.8S46,258,46,258l-10.8,3.5C35.3,261.5,35.8,267.2,31.1,268.5z"/>
		<line class="st2" x1="37.5" y1="261.1" x2="36.2" y2="256.7"/>
		<line class="st2" x1="36" y1="261.5" x2="34.7" y2="257.1"/>
		<path d="M141.8,192.3c-13.4-16-35.1-18.9-54.7-18.2c-3.7,0.1-5.5-3.3-6.7-0.6c-0.5,0.8-1.7,7.2-1.9,8.4
			c-5.6,23.5-13.2,54.6-39.9,61.6c2.6,5.1,4.9,10.4,7.2,15.6c29.4-9,40.9-40.4,47.9-68.1c13.3,0.1,27.3,2.4,36,13.3
			c10.5,13.2,10.6,31.3,10.6,47.4h17C157.3,230.8,155.8,209.1,141.8,192.3z"/>
		<line class="st4" x1="94.8" y1="189.8" x2="100.6" y2="186.3"/>
	</g>
	<path id="Thumb_4_" class="st2" d="M139.7,123c2.2,0.7,4.2,1.3,3.9,2.8c-0.4,1.5-5.7-0.3-5.7-0.3"/>
	<g id="Body_24_">
		<polyline class="st2" points="89.9,150.2 90,147.3 99.5,147.7 98.7,151.2 		"/>
		<path class="st2" d="M92.4,150.5c-11.5-0.4-12.9,4.1-14.7,26.4l27-0.3c0,0,1.1-6.5,1.5-13.2C106.6,156.3,107.9,151.1,92.4,150.5z"
			/>
		<line class="st0" x1="78.8" y1="172" x2="105.3" y2="172"/>
		<line class="st0" x1="78.9" y1="165.6" x2="89.1" y2="165.6"/>
		<line class="st0" x1="79.9" y1="159.2" x2="87.6" y2="159.2"/>
		<line class="st0" x1="83.2" y1="152.8" x2="103.5" y2="152.8"/>
		<line class="st0" x1="82.4" y1="176.9" x2="82.4" y2="153.6"/>
		<line class="st0" x1="88.9" y1="176.9" x2="88.9" y2="150.6"/>
		<line class="st0" x1="95.3" y1="176.8" x2="95.3" y2="150.7"/>
		<line class="st0" x1="101.7" y1="176.7" x2="101.7" y2="152"/>
	</g>
	<g id="Hand_14_">
		<polygon class="st5" points="147.5,130.8 140.5,135.3 140.5,140.1 146.9,140.8 148.9,135.3 		"/>
		<path class="st2" d="M150.1,130.8c0.9,1.8-2,4.5-2,4.5"/>
		<path class="st2" d="M148.9,138.1c1.6-1.6,2.8-3.8,1.3-5.5"/>
		<path class="st2" d="M136.6,134.4c1.7-3.8,3.7-8.1,4.7-7.4s0,5.4,1.4,5.6s7.1-5.5,7.5-3.5s-3.8,3.8-3.8,3.8"/>
		<path class="st2" d="M136.6,134.4c-6.2,16.2-23.8,24.4-40.4,19.6c-8.7-2.5-12.4,11-3.7,13.5c24.3,7,47.8-5.9,56.5-29.4
			C144.9,137.4,139.9,136.5,136.6,134.4z"/>
	</g>
</g>
<g id="Objects_12_">
	<rect x="219.2" y="170.5" transform="matrix(0.3939 0.9191 -0.9191 0.3939 294.1149 -99.0367)" width="6" height="6"/>
	
		<rect x="86.7" y="100.4" transform="matrix(0.3939 0.9191 -0.9191 0.3939 154.1458 -20.768)" class="st0" width="12.3" height="12.3"/>
	<line class="st0" x1="83.3" y1="116" x2="85.8" y2="118"/>
	<line class="st0" x1="108.1" y1="237.5" x2="104.3" y2="239.5"/>
	<line class="st0" x1="81.8" y1="256.8" x2="84.6" y2="259.5"/>
	<line class="st0" x1="224.3" y1="180" x2="226.3" y2="183.3"/>
	<line class="st0" x1="265.1" y1="216.8" x2="262.1" y2="218.3"/>
	<line class="st0" x1="257.6" y1="244" x2="259.1" y2="246.5"/>
	<line class="st0" x1="176.2" y1="49.8" x2="172.2" y2="45.3"/>
	<line class="st0" x1="176.7" y1="37.3" x2="180.2" y2="48.8"/>
	<line class="st0" x1="223.7" y1="48.8" x2="226.2" y2="45.3"/>
</g>
<g id="Woman_14_">
	<g id="Legs_24_">
		<path class="st2" d="M219.8,256.3h20.7c0,0,0-9.9,0.3-14.7c0.3-4.8-15,2.5-15,2.5l-0.1,6C225.7,250.1,219.9,251.3,219.8,256.3z"/>
		<line class="st2" x1="225.5" y1="247.8" x2="230.1" y2="248"/>
		<line class="st2" x1="225.5" y1="249.4" x2="230.1" y2="249.6"/>
		<path class="st2" d="M335.3,266.8L353,256c0,0-5.3-8.3-7.6-12.5s-13.5,5.3-13.5,5.3l5.4,10C337.2,258.8,332.8,262.6,335.3,266.8z"
			/>
		<line class="st2" x1="335.8" y1="257" x2="339.8" y2="254.7"/>
		<line class="st2" x1="336.6" y1="258.3" x2="340.6" y2="256"/>
		<path class="st2" d="M346.8,244.4c-15-25.3-28.2-51.6-39.3-78.9c-1.7-4.3-5.7-7.3-10.5-5.9c-3.3,0.9-6.4,4.5-6.4,8.1
			c-30.6,12.7-66.4,40.4-65.9,76.5h17c0-28.4,30.4-50.8,54.6-60.6c0.1,0,0.2-0.1,0.4-0.2c10.1,23.4,21.5,46.1,34.5,68
			C336.4,249,341.6,246.7,346.8,244.4z"/>
	</g>
	<path id="Hand_2_8_" d="M294.2,150.8c-3.3,10-16.3,7.1-23.4,4.1c-3.3-1.4-7.1,1.5-8,4.5c-1.1,3.7,1.3,6.6,4.5,8
		c14.7,6.2,33.8,3.9,39.4-13.2C309.4,146.3,296.8,142.9,294.2,150.8z"/>
	<g id="Head_25_">
		<path d="M295,127.7c-1.7-0.4-3.6,0-5.3,1.3c1,1.6,3.5,3,4.7,3.2c1.1,0.3,0.8,1.8-0.1,2c-0.8,0.3,0.9,1.9,1.4,2.1
			c0.2,0.1,0.4,0.1,0.6,0.1c0.9-0.9,1.5-2.4,1.4-4.6c0-0.4,0-0.8,0-1.3C297,129.5,296,128.6,295,127.7z"/>
		<path class="st0" d="M297.8,131.9c0,2.1-0.4,3.5-1.3,4.5l1.8,4l2,4.4l-5.1,2.1l-1.9-4.3l-2.1-4.7c-3.1-0.5-3-3.8-3-3.8l-1.1-0.7
			c0,0,0.5-2,2.7-4.3C292,126.7,297.7,127.3,297.8,131.9z"/>
		<path d="M296.6,128.9c1.8-2.5,1.4-8,5.8-4.4s4,9.5,12.3,7.6s9.9,2.9,15,2.8s8.5,1.6,1.8,3.5s-10.8-0.8-18.4,1.9
			s-14.5-2.1-11.9-6.4s1.3-7-0.6-5.8s-3.3,2.6-3.3,2.6L296.6,128.9z"/>
	</g>
	<g id="Lens_1_">
		<path class="st2" d="M244.2,67.4c-14.3-18.9-37.7-20.1-54.7-7s-20.1,37.7-7,54.7c11.8,15.2,32.7,19.3,49.1,10.5
			c1.9-1,3.8-2.2,5.6-3.6c1.8-1.4,3.4-2.9,4.9-4.5C254.8,103.9,255.9,82.8,244.2,67.4z M233.8,117.6c-12,9.3-28.4,9.1-40,0.5
			c-2.4-1.8-4.7-3.9-6.6-6.4c-11.2-14.5-8.6-35.4,5.9-46.7c14.5-11.2,34.4-10.2,46.7,5.9C250.8,85.5,248.3,106.3,233.8,117.6z"/>
		<path class="st0" d="M217.8,115.6c-4.5,0.8-9.1,0.3-13.3-1.3"/>
		<path class="st0" d="M228.6,110.8c-1,0.8-2.1,1.5-3.2,2.1"/>
		<path class="st2" d="M284.2,171.8l-10.5,8.1l-42-54.2c1.9-1,3.8-2.2,5.6-3.6c1.8-1.4,3.4-2.9,4.9-4.5L284.2,171.8z"/>
		
			<rect x="238.9" y="128.5" transform="matrix(0.7906 -0.6123 0.6123 0.7906 -29.8886 178.1525)" class="st2" width="13.2" height="8.5"/>
	</g>
	<g id="Body_25_">
		<path d="M298.3,144c-7.7,0.6-14.5,13-10,16.5v11.8l23.5-4.3c0,0-0.1-3.4-1.8-10.8C308.1,148.5,307.3,143.3,298.3,144z"/>
		<line class="st4" x1="288.7" y1="159.9" x2="289" y2="165.3"/>
	</g>
	<g id="Hand_15_">
		<polygon class="st5" points="249.6,150.4 245.6,152.6 248.9,161.6 258.8,159.3 257.9,153.4 255,155 		"/>
		<path class="st1" d="M306.6,152.3c-0.6-8.3-13.6-8.4-13,0c0.8,10.1-5.9,19.3-16.4,19.6c-8.6,0.2-15-6.1-17.8-13.8
			c-4.1,1.3-7.6,2.3-11.8,3.5c3.3,13.3,15.1,23.6,29.6,23.3C294.4,184.5,308,169.5,306.6,152.3z"/>
		<path class="st2" d="M247.7,149.6c-1.6,0.9,0.4,6.3,0.4,6.3s-1.4-5.5-2.6-4.8s0.7,5.3,2.2,10.5"/>
		<path class="st2" d="M259.4,158.1c-0.4-4.1-0.3-8.8-1.9-7.9s-0.9,6.4-4.7,2.8c-3.2-3.2-2.9-4.5-4.5-3.9s2.5,5.7,2.5,5.7"/>
		<path class="st4" d="M286.7,167.8c4.3-3.6,6.8-8.9,9.3-14.4"/>
		<path class="st4" d="M307.2,157.4c-0.5,4-3.8,11.7-3.8,11.7"/>
	</g>
	<path id="Fingers" class="st2" d="M244.2,142.3c-1.3,1.4,1.4,5.9,3.3,6c2,0.2,2.6-1.2,1.6-2c-0.7-0.6-3.2-0.2-3.2-0.2s2.8-0.7,2-2
		c-0.8-1.3-3.3-0.1-3.3-0.1s2.8-0.4,2.4-1.5C246.6,141.5,245.2,141.3,244.2,142.3z"/>
</g>
</svg>
