<?xml version="1.0" standalone="no"?>
<!DOCTYPE svg PUBLIC "-//W3C//DTD SVG 20010904//EN"
 "http://www.w3.org/TR/2001/REC-SVG-20010904/DTD/svg10.dtd">
<svg version="1.0" xmlns="http://www.w3.org/2000/svg"
 width="1118.000000pt" height="1118.000000pt" viewBox="0 0 1118.000000 1118.000000"
 preserveAspectRatio="xMidYMid meet">
<metadata>
Created by potrace 1.11, written by Peter Selinger 2001-2013
</metadata>
<g transform="translate(0.000000,1118.000000) scale(0.100000,-0.100000)"
fill="#000000" stroke="none">
<path d="M4345 11031 c-81 -29 -112 -48 -168 -104 -145 -146 -160 -365 -35
-534 40 -55 97 -99 175 -136 l48 -22 1170 -3 c1072 -3 1175 -2 1233 14 75 20
165 77 210 134 34 41 79 131 88 172 6 32 6 137 -1 171 -23 116 -108 228 -215
282 -88 45 -72 45 -1295 45 -1093 -1 -1163 -2 -1210 -19z"/>
<path d="M2140 9794 c-72 -19 -102 -33 -157 -75 -153 -115 -203 -329 -117
-503 54 -110 164 -195 284 -219 42 -9 913 -12 3436 -11 1858 1 3390 5 3404 8
14 3 54 20 89 37 124 61 206 177 225 319 l6 46 -2318 -1 -2317 0 -100 96 c-55
53 -119 114 -143 135 -24 22 -53 48 -65 59 -13 11 -49 43 -82 70 l-59 50
-1021 1 c-761 0 -1031 -3 -1065 -12z"/>
<path d="M1135 8562 c-53 -5 -153 -42 -195 -73 -53 -39 -71 -57 -107 -110
-159 -236 -32 -560 245 -625 41 -10 991 -12 4515 -11 l4462 2 65 31 c124 60
203 153 234 275 9 36 16 73 16 82 0 16 -218 17 -3402 17 l-3403 0 -39 73 c-35
63 -192 325 -202 336 -4 5 -2144 8 -2189 3z"/>
<path d="M648 7300 c-245 -77 -364 -349 -251 -574 57 -112 181 -204 298 -222
28 -4 2228 -7 4890 -7 4610 0 4843 1 4895 17 79 26 129 57 184 115 62 67 118
192 110 249 -1 6 -2 16 -3 22 -1 6 -1399 9 -3883 9 -2136 0 -3899 0 -3919 1
-34 0 -36 2 -48 53 -7 28 -33 120 -58 204 l-46 152 -1056 0 c-990 -1 -1060 -2
-1113 -19z"/>
<path d="M416 6068 c-113 -16 -244 -111 -296 -215 -72 -144 -59 -304 34 -431
60 -80 148 -140 236 -159 45 -9 10316 -9 10354 1 127 31 246 139 290 264 22
60 29 132 13 133 -6 1 -1881 2 -4166 3 l-4155 1 -3 95 c-1 52 -5 127 -7 165
-3 39 -5 88 -5 110 l-1 40 -1123 0 c-618 0 -1145 -3 -1171 -7z"/>
<path d="M722 4728 c-214 -22 -377 -210 -367 -425 8 -161 111 -302 269 -367
l51 -21 4860 -3 c3392 -2 4875 1 4910 8 167 36 293 165 324 334 6 33 9 61 6
64 -2 2 -1768 5 -3923 5 l-3918 0 -27 126 c-15 69 -30 140 -33 156 -2 17 -9
53 -14 80 l-10 50 -1028 0 c-565 0 -1060 -3 -1100 -7z"/>
<path d="M1069 3475 c-250 -68 -376 -343 -264 -576 48 -101 145 -183 252 -214
54 -16 361 -17 4498 -17 3296 0 4454 2 4495 11 161 33 293 181 316 353 l7 47
-3389 0 c-1864 0 -3430 0 -3481 1 l-92 0 -39 76 c-22 41 -66 133 -98 204 l-59
129 -1050 0 c-812 -1 -1060 -4 -1096 -14z"/>
<path d="M2204 2242 c-114 -15 -197 -54 -265 -124 -140 -145 -154 -364 -35
-527 35 -48 102 -103 156 -129 82 -39 -24 -38 3515 -37 l3400 1 58 21 c104 39
193 122 239 223 25 53 44 159 30 161 -4 1 -1126 2 -2495 3 l-2487 1 -51 55
c-28 30 -70 75 -93 100 -32 35 -193 223 -214 250 -4 5 -1721 7 -1758 2z"/>
<path d="M4344 981 c-177 -60 -290 -219 -286 -400 5 -194 152 -366 339 -395
40 -6 2293 -9 2323 -3 100 21 160 50 222 109 61 58 82 92 108 168 69 205 -28
415 -237 513 l-48 22 -1185 2 c-1106 2 -1188 0 -1236 -16z"/>
</g>
</svg>
